<svg width="226" height="20" viewBox="0 0 226 20" fill="none" xmlns="http://www.w3.org/2000/svg">
<g clip-path="url(#clip0_1403_10664)">
<path d="M0.708496 18.7058V1.29492H10.782V1.64038H1.05395V9.75165H9.81468V10.0971H1.05395V18.7058H0.708496Z" fill="black"/>
<path d="M32.3454 18.7055H31.9723C31.4127 17.3927 30.853 16.0869 30.3072 14.7742C29.7614 13.4615 29.2018 12.1556 28.6421 10.8429H20.6345C20.068 12.1556 19.5152 13.4684 18.9625 14.7742C18.4098 16.08 17.864 17.3927 17.2974 18.7055H16.9243L20.7796 9.59927L24.6349 0.5L28.4901 9.59927L32.3454 18.7055ZM24.8629 1.91636L24.7454 1.60545L24.6349 1.29455C24.0545 2.856 23.4327 4.38982 22.7556 5.90982C22.0785 7.42982 21.429 8.95673 20.7796 10.4975H28.4901C27.8752 9.05345 27.2741 7.62327 26.673 6.20691C26.072 4.79055 25.4709 3.36036 24.8629 1.91636Z" fill="black"/>
<path d="M46.7715 2.61373L46.7094 2.75882L46.6057 2.91082C46.4194 2.75336 46.2233 2.60797 46.0185 2.47554C45.4776 2.11052 44.8729 1.85037 44.2359 1.70864C43.8445 1.61445 43.4432 1.56805 43.0406 1.57045C42.4561 1.55685 41.8757 1.67245 41.341 1.909C40.8733 2.11344 40.4559 2.41763 40.1181 2.80027C39.8058 3.17407 39.571 3.6062 39.4272 4.07154C39.2687 4.54827 39.1893 5.04772 39.1923 5.55009C39.1775 6.00828 39.2575 6.4646 39.4272 6.89045C39.5771 7.24857 39.8007 7.57109 40.0835 7.837C40.3933 8.12006 40.7453 8.35316 41.1268 8.52791C41.5873 8.74438 42.063 8.92681 42.5501 9.07373C43.0614 9.23955 43.6555 9.42609 44.3257 9.61955C44.9975 9.81959 45.6407 10.1052 46.2395 10.4694C46.8391 10.8214 47.3609 11.2915 47.7734 11.8512C48.2125 12.5075 48.4304 13.287 48.3952 14.0759C48.405 14.7616 48.2634 15.441 47.9806 16.0657C47.7117 16.6564 47.3153 17.1803 46.8199 17.5995C46.3298 18.0299 45.7592 18.3587 45.141 18.5668C44.4752 18.8 43.7737 18.9146 43.0683 18.9054C42.4671 18.9139 41.8683 18.83 41.2926 18.6566C40.8095 18.5126 40.3456 18.3108 39.9108 18.0555C39.5587 17.8563 39.2256 17.625 38.9159 17.3646C38.6395 17.1228 38.4323 16.9294 38.2803 16.7774L38.5774 16.4803C38.8282 16.746 39.0959 16.9952 39.3788 17.2265C39.6867 17.4892 40.02 17.7206 40.3737 17.9174C40.7547 18.1239 41.158 18.2862 41.5759 18.401C42.0418 18.5285 42.5231 18.5913 43.0061 18.5875C43.641 18.59 44.2717 18.4848 44.8715 18.2766C45.4482 18.0835 45.9845 17.786 46.4537 17.3992C46.9084 17.0147 47.2839 16.5453 47.5592 16.0174C47.8457 15.46 47.9904 14.8407 47.9806 14.2141C48.0078 13.5213 47.8351 12.8354 47.4832 12.2381C47.1577 11.7192 46.7269 11.2744 46.2188 10.9323C45.6912 10.5763 45.1169 10.295 44.5123 10.0963L42.709 9.509C42.3912 9.42609 42.0181 9.31555 41.5897 9.16355C41.1452 9.00618 40.7226 8.79256 40.3323 8.52791C39.9178 8.24931 39.5592 7.89543 39.2752 7.48464C38.9684 6.99647 38.8077 6.43066 38.8123 5.85409C38.7813 5.29569 38.8396 4.73593 38.985 4.19591C39.1308 3.6491 39.3845 3.13699 39.7312 2.68973C40.1025 2.22698 40.5753 1.85584 41.113 1.605C41.7379 1.31599 42.4215 1.17643 43.1097 1.19736C43.7445 1.19717 44.3748 1.30223 44.9752 1.50827C45.6423 1.75198 46.2533 2.12799 46.7715 2.61373V2.61373Z" fill="black"/>
<path d="M54.9312 18.7058V1.29492H55.2766V9.75165H66.8217V1.29492H67.2639C67.2639 4.21056 67.2478 7.11238 67.2155 10.0004C67.1833 12.8884 67.1672 15.7902 67.1672 18.7058H66.8217V10.0971H55.2766V18.7058H54.9312Z" fill="black"/>
<path d="M74.9053 1.29492H75.2507V18.7058H74.9053V1.29492Z" fill="black"/>
<path d="M81.9455 9.99956C81.9425 8.82834 82.1711 7.66807 82.6181 6.58551C83.0651 5.50294 83.7218 4.51943 84.5503 3.69156C85.3608 2.88157 86.3173 2.23221 87.3692 1.77774C88.4611 1.31097 89.6362 1.07031 90.8237 1.07031C92.0112 1.07031 93.1864 1.31097 94.2783 1.77774C95.3498 2.23479 96.3233 2.89395 97.1455 3.7192C97.9589 4.53221 98.6086 5.49387 99.0594 6.55193C99.5265 7.64315 99.7618 8.81953 99.7503 10.0065C99.7652 11.1937 99.5298 12.3708 99.0594 13.461C98.6081 14.5229 97.9586 15.4889 97.1455 16.3076C96.3323 17.1172 95.3705 17.7623 94.3128 18.2076C93.2182 18.6637 92.0441 18.8985 90.8583 18.8985C89.6724 18.8985 88.4983 18.6637 87.4037 18.2076C85.2547 17.3066 83.5436 15.6005 82.6364 13.4541C82.1722 12.362 81.937 11.1862 81.9455 9.99956ZM82.2979 9.99956C82.2948 11.1388 82.5302 12.2661 82.9888 13.309C83.4205 14.3151 84.0369 15.2313 84.8059 16.0105C85.5669 16.7995 86.4722 17.4351 87.4728 17.8828C88.5064 18.34 89.6244 18.5754 90.7546 18.5737C91.9048 18.574 93.0428 18.3389 94.0986 17.8828C95.1249 17.4514 96.062 16.8329 96.8623 16.0588C97.6523 15.2816 98.2856 14.3598 98.7277 13.3436C99.1788 12.2949 99.4114 11.1653 99.4114 10.0237C99.4114 8.88218 99.1788 7.75259 98.7277 6.70393C98.284 5.68824 97.6536 4.76486 96.8692 3.98175C96.0869 3.19805 95.1632 2.56975 94.147 2.13011C93.0983 1.67902 91.9687 1.44638 90.8272 1.44638C89.6856 1.44638 88.556 1.67902 87.5074 2.13011C86.4943 2.56815 85.5748 3.19675 84.799 3.98175C84.0184 4.77804 83.3969 5.71604 82.9681 6.74538C82.5199 7.78865 82.2895 8.91246 82.291 10.0479L82.2979 9.99956Z" fill="black"/>
<path d="M121.466 1.29455V19.5C119.043 16.5659 116.634 13.6572 114.239 10.7738C111.844 7.89042 109.435 4.97939 107.012 2.04073L106.777 1.70909C106.701 1.61236 106.625 1.50182 106.542 1.38436C106.542 1.52255 106.542 1.65382 106.577 1.78509C106.611 1.91636 106.577 2.04764 106.618 2.18582V18.7055H106.266V0.5C108.693 3.44788 111.102 6.37042 113.493 9.26764L120.719 18.0076C120.802 18.1251 120.878 18.2356 120.954 18.3324C121.03 18.4291 121.106 18.5396 121.189 18.6571C121.189 18.5258 121.189 18.3876 121.155 18.2564C121.148 18.1245 121.134 17.993 121.113 17.8625V1.29455H121.466Z" fill="black"/>
<path d="M134.648 18.9062C133.805 18.9144 132.965 18.7885 132.161 18.5331C131.43 18.3022 130.753 17.9262 130.171 17.4277C129.598 16.9257 129.146 16.2995 128.852 15.5967C128.524 14.7997 128.364 13.9435 128.382 13.0818V1.29492H130.454V13.0404C130.444 13.6152 130.55 14.1862 130.765 14.7193C130.962 15.1883 131.259 15.6082 131.636 15.9491C132.026 16.2871 132.48 16.5453 132.969 16.7091C134.072 17.0498 135.252 17.0498 136.355 16.7091C136.843 16.5454 137.293 16.2871 137.681 15.9491C138.061 15.6075 138.363 15.1881 138.566 14.7193C138.79 14.1883 138.9 13.6165 138.89 13.0404V1.29492H140.963V13.0818C140.978 13.9453 140.811 14.8022 140.473 15.5967C140.173 16.2985 139.72 16.9242 139.146 17.4277C138.562 17.9234 137.886 18.2991 137.156 18.5331C136.345 18.7896 135.499 18.9156 134.648 18.9062V18.9062Z" fill="black"/>
<path d="M162.879 1.29455V19.5L156.508 12.7636L150.145 5.99964L149.903 5.67491L149.668 5.35018C149.668 5.48145 149.668 5.61964 149.71 5.75091C149.751 5.88218 149.71 6.01345 149.71 6.14473V18.7055H147.637V0.5L154.007 7.40909L160.371 14.3182L160.612 14.6429L160.847 14.9607C160.847 14.8295 160.847 14.6982 160.806 14.5669C160.764 14.4356 160.806 14.2975 160.806 14.1662V1.29455H162.879Z" fill="black"/>
<path d="M170.382 1.29492H172.455V18.7058H170.382V1.29492Z" fill="black"/>
<path d="M191.061 1.29492V3.2571H185.236V18.7058H183.164V3.2571H177.291V1.29492H191.061Z" fill="black"/>
<path d="M195.255 18.7058V1.29492H205.978V3.2571H197.328V8.9571H205.011V10.9193H197.328V16.7437H206.309V18.7058H195.255Z" fill="black"/>
<path d="M212.472 1.29417H216.528C217.684 1.28617 218.832 1.49231 219.913 1.90217C220.958 2.29548 221.91 2.8979 222.714 3.67251C223.517 4.44712 224.153 5.3776 224.584 6.4069C225.061 7.5533 225.296 8.78579 225.275 10.0273C225.269 11.0502 225.096 12.0654 224.764 13.0327C224.418 14.0721 223.855 15.026 223.112 15.8309C222.278 16.7219 221.266 17.428 220.141 17.9036C218.725 18.4787 217.206 18.7539 215.678 18.712H212.465L212.472 1.29417ZM214.545 3.25635V16.7153H216.286C217.228 16.7258 218.164 16.5666 219.05 16.2454C219.866 15.9523 220.612 15.4943 221.244 14.9C221.875 14.3056 222.377 13.5877 222.718 12.7909C223.086 11.9168 223.267 10.9755 223.25 10.0273C223.265 9.07931 223.083 8.13858 222.718 7.26363C222.382 6.46367 221.882 5.74302 221.25 5.14806C220.618 4.5531 219.868 4.09699 219.05 3.80908C218.165 3.48211 217.229 3.32052 216.286 3.33235L214.545 3.25635Z" fill="black"/>
</g>
<defs>
<clipPath id="clip0_1403_10664">
<rect width="224.573" height="19" fill="white" transform="translate(0.708496 0.5)"/>
</clipPath>
</defs>
</svg>
