<svg width="123" height="30" viewBox="0 0 123 30" fill="none" xmlns="http://www.w3.org/2000/svg">
<g clip-path="url(#clip0_1403_10678)">
<path fill-rule="evenodd" clip-rule="evenodd" d="M22.2143 28.0042C21.9799 28.9426 21.9477 29.0371 21.7099 29.0371H19.0377V29.2208H25.0901V29.0371H22.3197C22.1406 29.0371 22.1706 28.9098 22.3884 28.0522L24.2501 20.8236H31.6198L33.8698 29.0371H30.8759V29.2208H40.9469V29.0371H37.816L29.4642 0.0722656H29.4135L22.2143 28.0042ZM27.8131 6.97928L31.5626 20.6408H24.3028L27.8131 6.97928ZM108.957 14.7692H111.261C113.302 14.7692 116.312 15.6482 116.312 19.2196V25.6869C116.312 28.3334 117.772 29.9999 120.349 29.9999C123.056 29.9999 123.014 27.2657 123.014 25.2933V23.2146H122.831V25.2933C122.831 27.5368 122.565 29.4852 121.244 29.4852C120.074 29.4852 119.822 28.7593 119.822 25.7153V19.2196C119.822 16.214 117.386 15.1124 113.624 14.6764C118.309 14.119 120.074 11.1266 120.074 7.81759C120.074 2.92311 117.814 0.865724 111.993 0.865724L102.766 0.863761V1.04769H105.189C105.364 1.04769 105.447 1.09675 105.447 1.196V28.8877C105.447 28.9875 105.364 29.0371 105.189 29.0371H102.766V29.2208H111.251V29.0371H109.213C109.038 29.0371 108.957 28.9875 108.957 28.8877V14.7692V14.7692ZM108.957 1.04937H111.444C115.274 1.04937 116.358 3.96301 116.358 7.81759C116.358 11.4266 115.274 14.5855 111.444 14.5855H108.957V1.04937V1.04937ZM47.2094 28.8925C47.1794 28.9583 47.2133 29.0371 47.3549 29.0371L53.9658 29.0388C56.0011 29.0388 58.6282 26.0287 58.6282 16.3292V15.3193H58.8121V29.2219H43.0276L54.9858 1.19096C55.015 1.12591 54.9808 1.04769 54.8395 1.04769L47.8206 1.04937C45.9783 1.04937 43.3029 4.41273 43.3029 13.7596V14.7692H43.1193V0.865724H59.1794L47.2094 28.8925ZM8.12975 1.04937C11.9613 1.04937 13.5213 3.96301 13.5213 7.81759C13.5213 11.4266 11.9613 14.3099 8.12975 14.3099H6.38638V1.04937H8.12975V1.04937ZM0.196289 0.863761V1.04769H2.61928C2.79451 1.04769 2.87638 1.09675 2.87638 1.196V28.8877C2.87638 28.9875 2.79451 29.0371 2.61928 29.0371H0.196289V29.2208L9.23134 29.2219C15.0508 29.2219 18.1556 26.7978 18.1556 21.9047C18.1556 18.5161 16.3206 15.0672 10.5281 14.3803C15.4486 13.9202 17.1463 10.8297 17.1463 7.81759C17.1463 3.41264 14.5004 0.865724 8.68068 0.865724L0.196289 0.863761ZM8.12975 14.4936C12.4503 14.4936 14.164 17.4381 14.164 21.9047C14.164 25.7582 12.6342 29.0388 9.04741 29.0388L6.64349 29.0371C6.46825 29.0371 6.38638 28.9875 6.38638 28.8877V14.4913L8.12975 14.4936V14.4936ZM63.8793 28.0042C63.6438 28.9426 63.6115 29.0371 63.3743 29.0371H60.7021V29.2208H66.7551V29.0371H63.9839C63.8058 29.0371 63.835 28.9098 64.054 28.0522L65.9148 20.8236H73.2844L75.535 29.0371H72.54V29.2208H82.6119V29.0371H79.4799L71.1286 0.0722656H71.0773L63.8793 28.0042V28.0042ZM69.4781 6.97928L73.2264 20.6408H65.9667L69.4781 6.97928Z" fill="black"/>
<path fill-rule="evenodd" clip-rule="evenodd" d="M83.9809 28.0042C83.7457 28.9426 83.7145 29.0371 83.4771 29.0371H80.8043V29.2208H86.857V29.0371H84.086C83.908 29.0371 83.9374 28.9098 84.1556 28.0522L86.0172 20.8236H93.3866L95.6369 29.0371H92.6422V29.2208H102.714V29.0371H99.5829L91.2316 0.0722656H91.1803L83.9809 28.0042V28.0042ZM89.5805 6.97928L93.3294 20.6408H86.0688L89.5805 6.97928V6.97928ZM77.5045 3.79871C77.5045 3.80993 77.5149 3.81414 77.5345 3.81414H77.9436V3.87946H76.5471V3.81414H76.9118C76.9323 3.81414 76.9413 3.80993 76.9413 3.79871V2.38479H75.6075V3.79871C75.6075 3.80993 75.6168 3.81414 75.6367 3.81414H76.0015V3.87946H74.6055V3.81414H75.0145C75.0344 3.81414 75.0437 3.80993 75.0437 3.79871V1.02414C75.0437 1.01404 75.0344 1.00928 75.0145 1.00928H74.6055V0.943668H76.0015V1.00928H75.6367C75.6168 1.00928 75.6075 1.01404 75.6075 1.02414V2.32002H76.9413V1.02414C76.9413 1.01404 76.9323 1.00928 76.9118 1.00928H76.5471V0.943668H77.9436V1.00928H77.5345C77.5149 1.00928 77.5045 1.01404 77.5045 1.02414V3.79871V3.79871ZM81.3821 2.59367C81.2537 2.59367 81.1676 2.53423 81.1676 2.43414C81.1676 2.34357 81.222 2.34666 81.222 2.28021C81.222 2.21292 81.1788 2.18208 81.1096 2.18208C81.0381 2.18208 80.9105 2.20591 80.8138 2.49974V3.79871C80.8138 3.80993 80.8228 3.81414 80.8429 3.81414H81.0936V3.87946H80.1106V3.81414H80.3604C80.3806 3.81414 80.3896 3.80993 80.3896 3.79871V2.19526C80.3896 2.18544 80.3806 2.17984 80.3604 2.17984H80.1106V2.11451H80.8015L80.8138 2.12713V2.40105C80.8875 2.17283 81.0468 2.07862 81.2341 2.07862C81.462 2.07862 81.6101 2.19834 81.6101 2.38367C81.6101 2.50058 81.5198 2.59367 81.3821 2.59367V2.59367ZM85.069 3.91507C85.3889 3.91507 85.6463 3.76002 85.8182 3.52255L85.7686 3.48273C85.6079 3.71012 85.3926 3.85086 85.069 3.85086C84.9507 3.85086 84.8554 3.82843 84.7738 3.7561C84.6392 3.63526 84.5972 3.49367 84.5972 2.99741C84.5972 2.96068 84.5974 2.95058 84.5983 2.91694H85.8558L85.8681 2.90544C85.8681 2.5704 85.6371 2.07862 85.069 2.07862C84.5447 2.07862 84.1508 2.49049 84.1508 2.99741C84.1508 3.50348 84.5447 3.91507 85.069 3.91507V3.91507ZM85.3023 2.239C85.3987 2.34778 85.4301 2.516 85.4377 2.85161H84.5994C84.6098 2.516 84.6521 2.34778 84.7738 2.239C84.8554 2.16638 84.9507 2.14395 85.069 2.14395C85.1714 2.14395 85.2375 2.16638 85.3023 2.239ZM78.8128 3.83432C79.0376 3.83432 79.1834 3.67423 79.1834 3.52114V2.91021C79.0788 2.97049 78.9272 2.97049 78.7931 2.9946C78.6426 3.02208 78.4811 3.10086 78.4811 3.48105C78.4811 3.77124 78.6712 3.83432 78.8128 3.83432ZM78.2848 2.4375C78.2848 2.29086 78.4696 2.07862 78.8265 2.07862C79.3494 2.07862 79.6082 2.30909 79.6082 2.82666V3.66862C79.6082 3.76759 79.6556 3.80853 79.7245 3.80853C79.8053 3.80853 79.87 3.7418 79.8874 3.70143L79.9303 3.74404C79.904 3.8175 79.77 3.91507 79.5995 3.91507C79.406 3.91507 79.2358 3.8032 79.2058 3.64787C79.1442 3.82479 78.9748 3.91507 78.7312 3.91507C78.3272 3.91507 78.0675 3.77432 78.0675 3.48105C78.0675 3.04815 78.5299 2.9475 78.7076 2.9332C78.9583 2.91217 79.1834 2.89563 79.1834 2.80703V2.56563C79.1834 2.27012 79.0544 2.14395 78.8265 2.14395C78.7124 2.14395 78.6414 2.1961 78.6414 2.31834C78.6414 2.38787 78.6776 2.40918 78.6776 2.47703C78.6776 2.55301 78.6173 2.62535 78.4743 2.62535C78.3384 2.62535 78.2848 2.53114 78.2848 2.4375V2.4375ZM83.2051 2.23703C83.1291 2.16638 83.0262 2.14395 82.9163 2.14395C82.7643 2.14395 82.6247 2.24432 82.528 2.35759V3.59152C82.5863 3.73843 82.7554 3.85086 82.9163 3.85086C83.0262 3.85086 83.1291 3.829 83.2051 3.7575C83.3304 3.6389 83.4148 3.43227 83.4148 3.00806C83.4148 2.58357 83.3304 2.35535 83.2051 2.23703V2.23703ZM83.8463 3.00806C83.8463 3.46647 83.4569 3.91507 82.9163 3.91507C82.7509 3.91507 82.6247 3.81189 82.528 3.71208V5.07946C82.528 5.089 82.5381 5.09376 82.5577 5.09376H82.8075V5.15909H81.8254V5.09376H82.0749C82.0948 5.09376 82.1041 5.089 82.1041 5.07946V2.19526C82.1041 2.18544 82.0948 2.17984 82.0749 2.17984H81.8254V2.11451H82.5159L82.528 2.12713V2.28442C82.6247 2.18376 82.7509 2.07862 82.9163 2.07862C83.4569 2.07862 83.8463 2.54909 83.8463 3.00806V3.00806ZM89.2082 2.12797C89.2547 2.12797 89.2805 2.1089 89.2856 2.09096H89.3565V2.52834H89.2856C89.2856 2.27404 89.0576 2.14395 88.8417 2.14395C88.6183 2.14395 88.5103 2.24432 88.5103 2.40273C88.5103 2.60657 88.6567 2.7103 88.9889 2.80339C89.3369 2.90124 89.5659 3.07114 89.5659 3.33638C89.5659 3.67199 89.2948 3.91507 88.8611 3.91507C88.6034 3.91507 88.4918 3.79507 88.3584 3.79507C88.3286 3.79406 88.2992 3.80212 88.2741 3.8182C88.249 3.83427 88.2294 3.85759 88.2179 3.88507H88.1461L88.1708 3.30329H88.2426C88.2305 3.60834 88.5159 3.85086 88.8611 3.85086C89.1218 3.85086 89.2696 3.73143 89.2696 3.50909C89.2696 3.28731 89.0949 3.199 88.7761 3.10171C88.4643 3.0075 88.2473 2.88077 88.2473 2.60657C88.2473 2.28161 88.5622 2.07862 88.8417 2.07862C89.024 2.07862 89.0411 2.12797 89.2082 2.12797V2.12797ZM87.9126 1.51479C87.9126 1.39647 88.0129 1.30002 88.1369 1.30002C88.2712 1.30002 88.3707 1.39759 88.3707 1.54058C88.3707 1.75171 88.1801 1.99956 87.9185 2.15685L87.8767 2.10974C88.0657 2.0004 88.2016 1.86554 88.2821 1.67404C88.2473 1.71245 88.1991 1.73012 88.1369 1.73012C88.0129 1.73012 87.9126 1.63423 87.9126 1.51479V1.51479ZM87.3454 2.59367C87.2175 2.59367 87.1309 2.53423 87.1309 2.43414C87.1309 2.34357 87.1856 2.34666 87.1856 2.28021C87.1856 2.21292 87.1418 2.18208 87.0723 2.18208C87.0011 2.18208 86.8732 2.20591 86.7771 2.49974V3.79871C86.7771 3.80993 86.7852 3.81414 86.8054 3.81414H87.0558V3.87946H86.0728V3.81414H86.3237C86.3433 3.81414 86.3529 3.80993 86.3529 3.79871V2.19526C86.3529 2.18544 86.3433 2.17984 86.3237 2.17984H86.0728V2.11451H86.7642L86.7771 2.12713V2.40105C86.8514 2.17283 87.0098 2.07862 87.1985 2.07862C87.4242 2.07862 87.5742 2.19834 87.5742 2.38367C87.5742 2.50058 87.4822 2.59367 87.3454 2.59367Z" fill="black"/>
</g>
<defs>
<clipPath id="clip0_1403_10678">
<rect width="122.804" height="30" fill="white" transform="translate(0.196289)"/>
</clipPath>
</defs>
</svg>
