<svg width="65" height="30" viewBox="0 0 65 30" fill="none" xmlns="http://www.w3.org/2000/svg">
<path fill-rule="evenodd" clip-rule="evenodd" d="M0.320801 23.6609C2.98912 23.564 3.66366 23.0497 3.66366 21.8273V3.98387C3.66366 2.76151 2.98912 2.21741 0.320801 2.12052V1.70312H11.091C18.1009 1.70312 19.9345 4.4348 19.9345 7.07331C19.9345 9.45095 18.0711 11.7354 13.1183 12.2162V12.3131C18.2612 12.5069 20.7692 14.7242 20.7692 17.81C20.7692 21.0261 18.5519 24.1118 11.3817 24.1118H0.320801V23.6609ZM10.6736 12.0224C14.2102 12.0224 15.1419 10.159 15.1419 7.16648C15.1419 4.40126 14.3705 2.28076 10.5767 2.28076H8.35931V12.0224H10.6736ZM11.0612 23.5006C15.1755 23.5006 15.9171 21.3801 15.9171 17.81C15.9171 14.9814 14.6947 12.6 10.7407 12.6H8.36304V23.5006H11.0649H11.0612Z" fill="black"/>
<path fill-rule="evenodd" clip-rule="evenodd" d="M27.6487 0.514496C27.3915 0.708285 27.1977 0.868533 27.1977 1.22257C27.1977 1.28592 27.2313 1.44617 27.2946 1.61015C27.5518 2.09089 28.066 2.06108 28.2263 2.06108C28.5803 2.06108 28.9344 1.96419 29.6424 1.7704C29.9629 1.70704 30.317 1.61015 30.671 1.51325C31.1518 1.38282 32.7282 0.998968 34.3679 0.998968C35.4934 0.998968 38.3219 1.19276 40.83 3.2499C43.5319 5.46729 44.7207 8.78034 44.7207 12.1567C44.7207 16.0139 43.3045 18.5555 42.4698 19.7443C40.6064 22.476 37.4201 24.5667 34.0139 24.5667C33.5965 24.5667 32.8549 24.5331 31.8263 24.3095C29.4151 23.7952 28.0325 22.83 27.1977 22.3157C26.6499 23.0238 26.2959 23.6015 26.2959 24.5033C26.2959 25.081 26.4897 25.5654 26.553 25.7555C26.8101 26.3033 27.2909 27.0748 28.5133 27.6859C30.0897 28.4574 31.7294 28.4574 32.3406 28.4574C32.7915 28.4574 36.4884 28.394 38.7393 26.9145C39.7046 26.2698 40.0586 25.6288 40.2822 25.2114L40.666 25.435C40.0884 26.4971 39.6039 27.1716 38.6424 27.9095C37.6772 28.6176 35.7505 29.7431 32.8549 29.7431C32.3741 29.7431 29.7692 29.6797 27.999 28.4909C27.7754 28.3307 27.194 27.8797 26.7133 27.235C25.9418 26.1729 25.8114 25.1779 25.8114 24.6934C25.8114 23.3741 26.6164 22.3456 26.8064 22.0251C26.389 21.6077 26.0015 21.1903 25.6176 20.7729C24.7493 19.7741 22.8188 17.5269 22.8188 13.7965C22.8188 12.317 23.1095 9.13437 26.3555 6.8499C27.2574 6.23872 28.2524 5.75798 29.2474 5.2735C28.9903 5.14307 28.6996 4.98282 28.4424 4.82257C26.8996 3.89089 26.4487 2.76543 26.4487 1.93065C26.4487 0.868533 27.0598 0.451142 27.3505 0.227539L27.6412 0.518222L27.6487 0.514496ZM32.9853 22.4425L33.3058 22.0884C33.1754 21.8946 33.0151 21.7046 32.8549 21.5741C32.5344 21.2834 31.8598 20.8996 30.7977 20.8996C30.2499 20.8996 29.6387 21.03 29.5456 21.0598C29.7058 21.2834 30.0934 21.9282 30.671 22.476C31.2487 23.0238 32.6015 24.0524 34.6884 24.0524C35.5903 24.0524 37.3232 23.7952 39.03 22.189C40.9269 20.3555 41.6983 17.6574 41.6983 15.0822C41.6983 13.9903 41.6014 11.0313 39.4139 8.45984C39.0598 8.07226 38.2549 7.17413 37.0027 6.59649C36.1977 6.20891 35.2027 5.92195 33.3356 5.88841C31.0213 5.79152 31.1816 5.85487 29.7021 5.43748C28.4797 7.36791 27.5145 8.62009 27.5145 12.9915C27.5145 13.6362 27.5145 14.2772 27.5779 14.922C27.8015 17.2064 28.2859 18.4921 29.2176 20.6126C29.5381 20.5157 30.5667 20.1319 31.6623 20.1319C32.6909 20.1319 33.3021 20.3555 34.2337 20.7431C34.4909 20.2288 34.748 19.748 34.748 19.1667C34.748 18.7157 34.5878 18.3319 34.5244 18.2015C34.2039 17.6238 33.6896 17.2362 32.948 16.2077C32.6909 15.8238 31.3083 13.7331 31.3083 11.7058C31.3083 10.1629 32.1133 8.45984 33.1716 7.36419C33.4623 7.04369 33.6859 6.8499 34.394 6.39897C34.2337 6.91326 34.1033 7.23375 34.1033 7.78158C34.1033 9.06729 35.0052 10.1294 35.7766 11.0275C36.0002 11.2847 36.194 11.5418 36.3878 11.799C36.7418 12.2797 37.6735 13.4723 37.6735 15.2052C37.6735 16.0102 37.5132 16.9418 36.6747 18.4847C35.6462 20.2549 34.681 21.2834 33.2685 22.7592L32.9778 22.4387L32.9853 22.4425Z" fill="black"/>
<path fill-rule="evenodd" clip-rule="evenodd" d="M45.2686 23.6609C47.9369 23.564 48.6114 23.0497 48.6114 21.8273V3.98387C48.6114 2.76151 47.9369 2.21741 45.2686 2.12052V1.70312H64.3977L64.6213 9.45095L64.1406 9.5143C61.8897 4.40126 60.4102 2.28076 56.3928 2.28076H53.3071V12.5069H54.6561C57.2275 12.5069 58.6437 11.4783 59.512 8.19878H59.9294V17.523H59.512C58.6437 14.21 57.2275 13.118 54.6561 13.118H53.3071V21.8311C53.3071 23.0832 53.7878 23.6311 56.7133 23.728V24.1155H45.2686V23.6646V23.6609Z" fill="black"/>
</svg>
