<svg width="170" height="40" viewBox="0 0 170 40" fill="none" xmlns="http://www.w3.org/2000/svg">
<g clip-path="url(#clip0_1416_15122)">
<g style="mix-blend-mode:luminosity">
<g style="mix-blend-mode:luminosity">
<path fill-rule="evenodd" clip-rule="evenodd" d="M10.5768 12.2878C8.69101 10.4083 6.82904 8.55212 4.96535 6.69509C2.56203 9.47501 2.35582 14.706 4.9597 17.8862C6.84684 16.0053 8.69578 14.1626 10.5768 12.2878ZM19.9605 33.0552C20.0499 33.1444 20.1593 33.2127 20.2587 33.2897C22.8127 30.2952 22.7228 24.9552 20.2517 22.1259C18.3963 23.9752 16.5422 25.8231 14.6216 27.7373C16.428 29.5376 18.1931 31.2977 19.9605 33.0552ZM12.6125 25.6894C14.5161 23.7921 16.3967 21.9182 18.3134 20.0076C16.4132 18.1133 14.52 16.2269 12.599 14.3119C10.7053 16.1987 8.82385 18.0739 6.89807 19.9937C8.81734 21.907 10.6997 23.7831 12.6125 25.6894ZM19.3735 5.55024C15.8289 2.01703 10.2552 2.02482 6.99358 4.6373C11.4112 9.04018 15.8254 13.4396 20.2791 17.8784C22.8404 14.7778 22.9789 9.14445 19.3735 5.55024ZM4.95363 22.1333C2.67013 24.7272 1.99203 30.1416 5.38818 33.9669C9.35956 38.4399 15.3865 37.7376 18.2101 35.3454C13.7642 30.9139 9.35956 26.5245 4.95363 22.1333ZM20.3477 37.2721C16.2522 40.569 9.98079 41.1661 5.08603 37.4572C2.82294 35.743 1.32391 33.4628 0.663171 30.6894C-0.271934 26.7646 0.572873 23.1968 2.97228 20.0071C-1.1289 14.7095 -0.517214 7.14983 4.81818 2.76815C9.61526 -1.1709 16.4684 -0.788848 20.8782 3.16924C25.0115 6.87984 26.7289 14.0112 22.2635 19.9816C26.5774 25.602 25.3775 33.2227 20.3477 37.2721Z" fill="white"/>
</g>
</g>
<path fill-rule="evenodd" clip-rule="evenodd" d="M43.1703 0C45.0207 0 46.4828 0.463945 47.5567 1.39185C48.6306 2.31975 49.1676 3.64531 49.1676 5.36856V13.5705C49.1676 14.863 48.8537 16.056 48.2259 17.1496C47.598 18.2432 46.6894 18.8894 45.4998 19.0882L49.9606 39.1209H43.4676L39.4033 18.5911H39.3538V39.1209H33.2573V0H43.1703ZM38.9716 15.8242H40.3584C41.0188 15.8242 41.5388 15.6004 41.9185 15.1529C42.2982 14.7054 42.4881 14.117 42.4881 13.3877V6.92357C42.4881 5.53129 41.8277 4.83517 40.507 4.83517H38.9716V15.8242ZM51.2793 39.1209V0H65.3452V5.16972H57.5864V15.0618H65.3452V20.0327H57.5864V34.15H65.3452V39.1209H51.2793ZM67.543 39.1209V0H81.609V5.16972H73.8502V15.0618H81.609V20.0327H73.8502V39.1209H67.543ZM97.8727 39.1209H83.8068V0H90.2326V34.0009H97.8727V39.1209ZM103.635 0H112.747L116.774 39.1209H110.28L110.028 34.3488H105.548L105.195 39.1209H98.7518L103.635 0ZM106.664 29.8901H109.741L108.587 5.71429H108.539L106.664 29.8901ZM124.375 32.8589C124.375 33.5581 124.51 34.1157 124.78 34.5318C125.051 34.948 125.54 35.1561 126.25 35.1561C126.925 35.1561 127.407 34.9397 127.694 34.5069C127.981 34.0741 128.124 33.5248 128.124 32.8589V0H134.356V32.5593C134.356 33.8244 134.154 34.9147 133.748 35.8302C133.343 36.7457 132.786 37.5198 132.076 38.1523C131.367 38.7849 130.523 39.2509 129.543 39.5506C128.563 39.8502 127.499 40 126.351 40C123.75 40 121.724 39.4174 120.271 38.2522C118.819 37.087 118.092 35.3059 118.092 32.9089V0H124.375V32.8589ZM146.778 0H152.818V39.1209H147.227L143.034 19.4362H142.934V39.1209H136.994V0H142.385L146.678 20.5298H146.778V0ZM165.152 39.1209H158.846V5.26914H154.576V0H169.521V5.26914H165.152V39.1209Z" fill="white"/>
</g>
<defs>
<clipPath id="clip0_1416_15122">
<rect width="170" height="40" fill="white"/>
</clipPath>
</defs>
</svg>
