<svg xmlns="http://www.w3.org/2000/svg" width="128" height="30" fill="none"><g clip-path="url(#a)"><path fill="#000" fill-rule="evenodd" d="M7.933 9.216 3.723 5.02c-1.802 2.085-1.956 6.009-.003 8.394l4.213-4.2ZM14.97 24.79c.067.067.15.119.224.176 1.915-2.246 1.848-6.25-.005-8.373l-4.223 4.209c1.355 1.35 2.679 2.67 4.004 3.988Zm-5.51-5.524 4.275-4.261-4.286-4.272-4.276 4.261 4.286 4.272Zm5.07-15.104c-2.659-2.65-6.839-2.644-9.285-.685l9.964 9.93c1.921-2.325 2.025-6.55-.679-9.245ZM3.715 16.6c-1.713 1.945-2.221 6.006.326 8.875 2.979 3.355 7.499 2.828 9.616 1.034L3.715 16.6Zm11.546 11.354c-3.072 2.473-7.776 2.92-11.447.139C2.117 26.807.993 25.097.497 23.017c-.701-2.944-.067-5.62 1.732-8.012C-.847 11.032-.388 5.362 3.614 2.076c3.597-2.954 8.737-2.668 12.045.3 3.1 2.784 4.388 8.132 1.039 12.61 3.235 4.215 2.335 9.931-1.437 12.968Z" clip-rule="evenodd" style="mix-blend-mode:luminosity"/><path fill="#000" fill-rule="evenodd" d="M32.378 0c1.387 0 2.484.348 3.29 1.044.805.696 1.208 1.69 1.208 2.982v6.152c0 .97-.236 1.864-.707 2.684-.47.82-1.152 1.305-2.044 1.454l3.345 15.025H32.6l-3.048-15.398h-.037v15.398h-4.572V0h7.435Zm-3.15 11.868h1.04c.496 0 .886-.168 1.17-.503.286-.336.428-.777.428-1.324V5.193c0-1.045-.495-1.567-1.486-1.567H29.23v8.242Zm9.231 17.473V0h10.55v3.877h-5.82v7.42h5.82v3.727h-5.82v10.589h5.82v3.728h-10.55Zm12.198 0V0h10.55v3.877h-5.82v7.42h5.82v3.727h-5.82v14.317h-4.73Zm22.747 0H62.855V0h4.82v25.5h5.73v3.84ZM77.726 0h6.834l3.02 29.34h-4.87l-.189-3.578h-3.36l-.264 3.579h-4.833L77.726 0Zm2.272 22.418h2.307L81.44 4.286h-.036l-1.406 18.132Zm13.283 2.226c0 .525.101.943.304 1.255.203.312.57.468 1.102.468.507 0 .868-.162 1.083-.487.216-.324.323-.736.323-1.236V0h4.674v24.42c0 .948-.152 1.766-.456 2.453a5.024 5.024 0 0 1-1.254 1.741 5.017 5.017 0 0 1-1.9 1.049 8.15 8.15 0 0 1-2.394.337c-1.95 0-3.47-.437-4.56-1.31-1.09-.875-1.634-2.21-1.634-4.008V0h4.712v24.644ZM110.083 0h4.53v29.34h-4.193l-3.145-14.763h-.075v14.764h-4.455V0h4.043l3.22 15.397h.075V0Zm13.781 29.34h-4.73V3.953h-3.202V0h11.209v3.952h-3.277V29.34Z" clip-rule="evenodd"/></g><defs><clipPath id="a"><path fill="#fff" d="M0 0h127.5v30H0z"/></clipPath></defs></svg>