<svg width="185" height="30" viewBox="0 0 185 30" fill="none" xmlns="http://www.w3.org/2000/svg">
<g clip-path="url(#clip0_1403_10645)">
<path d="M24.5967 27.3302C27.8951 27.016 31.1935 25.9165 31.1935 22.4611V11.3092L29.6228 9.73854L27.8951 11.3092V19.6338L29.3087 20.8904L26.1674 23.7176H26.0103L22.8689 21.0474L23.6543 20.2621V3.29875C23.6543 2.0422 22.5548 1.41393 21.9265 1.25686V0.942725C22.2407 0.785657 22.7119 0.628589 23.3401 0.628589C24.4396 0.628589 25.382 1.25686 25.6961 2.0422H25.8532C26.4815 1.09979 27.581 0.628589 28.5234 0.628589C28.8375 0.628589 29.1516 0.628589 29.4658 0.785657V1.09979C28.9946 1.25686 28.0522 1.88513 28.0522 3.61288V10.6809L32.293 6.75424H32.6071C32.9213 7.06838 34.649 8.63906 35.1202 8.9532C35.2773 9.11026 35.4344 9.11027 35.7485 9.11027C36.0626 9.11027 36.3768 8.9532 36.6909 8.79613V9.26733C36.3768 9.58147 35.9056 10.0527 35.9056 10.838V20.4192C35.9056 24.66 31.1935 27.3302 24.9108 27.8014V27.3302H24.5967ZM23.026 1.09979C23.6543 1.571 24.2825 2.0422 24.2825 3.14168V20.5762L23.6543 21.2045L26.3244 23.4035L27.1098 22.7752L25.0679 21.0474L25.382 20.7333V3.29875C25.2249 1.88513 23.9684 1.25686 23.026 1.09979V1.09979ZM30.4082 26.2307C31.6647 25.4453 32.9213 24.5029 32.9213 22.6181V10.6809L31.0365 8.63906L30.0941 9.4244L31.6647 11.1521V22.4611C31.8218 24.0317 31.1935 25.2883 30.4082 26.2307ZM38.2616 10.6809C40.1464 9.73854 42.8166 8.16786 44.7014 6.75424H45.0155C46.2721 8.01079 47.9998 10.0527 49.5705 11.4663V11.7804L42.6595 16.1783V19.0056C43.2878 19.4768 45.3297 20.4192 46.5862 20.8904L49.4134 18.2202L49.7276 18.5343L44.2302 23.8747H43.916C42.0312 23.0893 39.6752 21.9898 38.1045 21.2045C38.2616 20.5762 38.4187 19.1626 38.4187 17.4349V10.6809H38.2616ZM44.7014 22.7752C42.8166 21.9898 41.2459 21.2045 39.6752 20.4192C39.8323 19.948 39.8323 19.1626 39.8323 17.4349V10.3668L38.7328 10.9951V17.4349C38.7328 19.1626 38.7328 20.4192 38.5757 20.8904C39.9893 21.6757 42.0312 22.6181 43.916 23.4035L44.7014 22.7752ZM42.6595 15.7071L45.8009 13.6652C44.7014 12.4087 43.6019 11.1521 42.6595 10.2097V15.7071ZM43.6019 8.79613L42.8166 9.4244C43.759 10.5239 45.0155 11.9375 46.2721 13.3511L47.2145 12.7228C45.8009 11.3092 44.5443 9.89561 43.6019 8.79613ZM172.869 27.3302C176.167 27.016 179.466 25.9165 179.466 22.4611V11.3092L177.895 9.73854L176.167 11.3092V19.6338L177.581 20.8904L174.44 23.7176H174.125L170.984 21.0474L171.769 20.2621V3.29875C171.769 2.0422 170.67 1.41393 170.042 1.25686V0.942725C170.356 0.785657 170.827 0.628589 171.455 0.628589C172.555 0.628589 173.497 1.25686 173.811 2.0422H173.968C174.597 1.09979 175.696 0.628589 176.639 0.628589C176.953 0.628589 177.267 0.628589 177.581 0.785657V1.09979C177.11 1.25686 176.167 1.88513 176.167 3.61288V10.6809L180.251 6.75424H180.565C180.879 7.06838 182.607 8.63906 183.078 8.9532C183.235 9.11026 183.392 9.11027 183.707 9.11027C184.021 9.11027 184.335 8.9532 184.649 8.79613V9.4244C184.335 9.73854 183.864 10.2097 183.864 10.9951V20.4192C183.864 24.66 179.152 27.3302 172.869 27.8014V27.3302ZM171.298 1.09979C171.769 1.41393 172.555 2.0422 172.555 3.14168V20.4192L171.927 21.0474L174.597 23.2464L175.382 22.6181L173.34 20.8904L173.654 20.5762V3.29875C173.497 1.88513 172.241 1.25686 171.298 1.09979V1.09979ZM178.523 26.0736C179.78 25.2883 181.036 24.3459 181.036 22.4611V10.6809L179.152 8.63906L178.366 9.4244L179.937 11.1521V22.4611C180.094 24.0317 179.466 25.2883 178.523 26.0736V26.0736ZM78.9422 10.6809C80.827 9.73854 83.4972 8.16786 85.382 6.75424H85.6961C86.9527 8.01079 88.6804 10.0527 90.0941 11.3092V11.6234L83.3401 16.0213V18.8485C84.1255 19.3197 86.0103 20.2621 87.2668 20.7333L90.0941 18.0631L90.4082 18.3773L84.9108 23.7176H84.5967C82.7119 22.9323 80.3558 21.8328 78.7852 21.0474C78.9422 20.4192 79.0993 19.0056 79.0993 17.2778V10.6809H78.9422ZM85.2249 22.7752C83.3401 21.9898 81.7694 21.2045 80.1988 20.4192C80.3558 19.948 80.3558 19.1626 80.3558 17.4349V10.3668L79.4134 10.838V17.2778C79.4134 19.0056 79.4134 20.2621 79.2564 20.7333C80.67 21.5186 82.7119 22.4611 84.5967 23.2464L85.2249 22.7752V22.7752ZM83.3401 15.5501L86.4815 13.5082C85.382 12.2516 84.2825 10.9951 83.3401 10.0527V15.5501V15.5501ZM84.2825 8.79613L83.3401 9.4244C84.2825 10.5239 85.5391 11.9375 86.7956 13.3511L87.738 12.7228C86.4815 11.3092 85.2249 9.89561 84.2825 8.79613V8.79613ZM96.3768 2.82754V19.3197C96.3768 19.948 97.005 20.7333 97.6333 20.8904L98.5757 19.948L98.8899 20.2621L95.4344 23.8747H95.1202C93.8637 23.5605 91.9789 22.304 91.9789 20.2621V4.86943L91.0365 3.92702L89.937 5.02649L89.6228 4.71236L93.5496 0.628589H93.8637L96.3768 2.82754V2.82754ZM95.9056 22.6181C94.649 22.304 93.3925 21.5186 93.3925 19.7909V4.24115L91.9789 2.82754L91.1935 3.61288L92.4501 4.71236V20.2621C92.4501 21.9898 93.8637 23.0893 95.1202 23.4035L95.9056 22.6181ZM100.461 10.6809C102.345 9.73854 105.016 8.16786 106.9 6.75424H107.214C108.471 8.01079 110.199 10.0527 111.612 11.3092V11.6234L104.858 16.0213V18.8485C105.487 19.3197 107.529 20.2621 108.785 20.7333L111.612 18.0631L111.927 18.3773L106.429 23.7176H106.115C104.23 22.9323 101.874 21.8328 100.303 21.0474C100.461 20.4192 100.618 19.0056 100.618 17.2778V10.6809H100.461ZM106.743 22.7752C104.858 21.9898 103.288 21.2045 101.717 20.4192C101.874 19.948 101.874 19.1626 101.874 17.4349V10.3668L100.932 10.838V17.2778C100.932 19.0056 100.932 20.2621 100.775 20.7333C102.188 21.5186 104.23 22.4611 106.115 23.2464L106.743 22.7752V22.7752ZM104.858 15.5501L108 13.5082C106.9 12.2516 105.801 10.9951 104.858 10.0527V15.5501V15.5501ZM105.801 8.79613L105.016 9.4244C105.958 10.5239 107.214 11.9375 108.471 13.3511L109.256 12.7228C108 11.3092 106.743 9.89561 105.801 8.79613V8.79613ZM133.759 11.3092V19.3197C133.759 19.948 134.387 20.7333 135.016 20.7333L135.958 19.7909L136.272 20.105L132.817 23.7176H132.66C131.403 23.4035 129.518 22.304 129.518 20.105V10.9951L128.576 10.0527L127.476 10.9951L127.162 10.6809L131.089 6.75424H131.403L133.916 9.26733V10.6809L137.057 6.91131H137.372C138 7.53958 138.942 8.48199 139.885 9.11027L137.214 12.2516C136.429 11.6234 135.487 10.6809 134.858 10.2097L133.759 11.3092V11.3092ZM133.445 22.6181C132.188 22.304 130.932 21.5186 130.932 19.7909V10.3668L129.675 8.9532L128.89 9.73854L129.989 10.838V20.105C129.989 21.8328 131.403 22.9323 132.66 23.2464L133.445 22.6181V22.6181ZM135.173 9.89561C135.644 10.3668 136.429 11.1521 137.057 11.6234L137.686 10.838C137.057 10.3668 136.115 9.4244 135.644 9.11027L135.173 9.89561V9.89561ZM143.968 23.8747L140.199 21.3616V16.3354C141.141 15.7071 143.183 14.2935 144.125 13.6652C142.555 12.8799 141.298 11.9375 140.513 10.838V10.5239C142.712 9.26733 144.44 8.01079 145.696 6.75424H146.01C146.01 6.75424 150.722 8.9532 150.879 9.11027C151.194 9.26733 151.351 9.26733 151.508 9.26733C151.822 9.26733 152.136 9.11026 152.45 8.9532V9.4244C152.136 9.73854 151.665 10.2097 151.665 10.838V19.1626C151.665 20.105 152.45 20.5762 153.078 20.7333L154.021 19.7909L154.335 20.105L150.879 23.7176H150.722C149.309 23.4035 147.738 21.9898 147.581 20.4192L144.283 23.7176H143.968V23.8747ZM144.754 22.6181L141.612 20.5762V15.8642L140.67 16.4925V21.0474L144.125 23.2464L144.754 22.6181V22.6181ZM147.424 14.4506V11.9375L142.869 9.58147C142.555 9.89561 141.298 10.5239 140.984 10.838C142.084 12.0946 144.911 13.8223 147.424 14.4506V14.4506ZM151.508 22.6181C150.251 22.1469 148.995 21.3616 148.995 19.6338V10.9951L144.283 8.63906C144.125 8.79613 143.654 9.11027 143.497 9.26733L148.052 11.6234V20.105C148.052 21.6757 149.623 22.9323 150.722 23.4035L151.508 22.6181V22.6181ZM147.424 19.948V14.9218C146.481 14.6076 145.382 14.2935 144.44 13.8223V20.105L146.167 21.2045L147.424 19.948V19.948ZM113.34 21.2045V10.6809L118.995 6.75424H119.309C120.408 7.22545 124.021 8.79613 124.335 8.9532C124.492 8.9532 124.649 9.11027 124.963 9.11027C125.277 9.11027 125.591 8.9532 126.063 8.79613V9.4244C125.748 9.73854 125.277 10.3668 125.277 10.838V19.7909C125.277 21.8328 125.749 23.0893 126.534 23.8747V24.1888C125.277 25.4453 122.45 28.4296 121.194 29.8432H121.036C119.78 29.215 117.738 28.5867 116.167 28.5867C114.911 28.5867 113.497 28.9008 112.555 29.6862L112.241 29.5291C113.183 27.3302 115.225 24.9741 117.895 24.9741C119.466 24.9741 121.665 25.6024 123.55 26.7019C122.293 25.2883 121.194 22.6181 121.194 20.5762L117.895 23.7176H117.581L113.34 21.2045V21.2045ZM116.01 27.3302C114.754 27.3302 113.654 27.9584 113.026 28.7438V28.9008C113.811 28.4296 114.597 28.2726 116.01 28.2726C117.581 28.2726 119.78 28.7438 120.879 29.372L121.508 28.5867C120.094 27.9584 118.052 27.3302 116.01 27.3302ZM117.267 23.4035L118.052 22.7752L114.754 20.4192V10.3668L113.811 10.9951V21.0474L117.267 23.4035V23.4035ZM122.293 10.3668L117.581 8.48199V9.4244L121.194 10.9951V20.4192C121.194 22.4611 122.136 24.66 123.55 26.3877L124.335 25.6024C123.078 24.0317 122.293 22.304 122.293 20.2621V10.3668V10.3668ZM120.879 19.948V11.3092L117.738 9.89561V19.7909L119.78 21.0474L120.879 19.948V19.948ZM161.089 10.6809L165.173 6.75424H165.487C165.801 7.06838 167.686 8.79613 168 8.9532C168.157 9.11026 168.314 9.11027 168.471 9.11027C168.785 9.11027 169.099 8.9532 169.413 8.79613V9.4244C169.099 9.73854 168.628 10.3668 168.628 10.9951V21.0474C166.9 21.5186 165.487 22.461 163.916 24.1888H163.759L161.089 23.5605V25.7595L162.502 27.016L159.204 29.8432H159.047L155.906 27.1731L156.691 26.2307V22.4611C156.377 22.4611 155.749 22.304 155.434 22.1469V21.6757C155.749 21.5186 156.848 20.5762 156.848 19.7909V11.1521L155.906 10.2097L154.806 11.3092L154.492 10.9951L158.419 7.06838H158.733L161.246 9.58147V10.6809H161.089ZM157.162 26.5448L156.534 27.1731L159.047 29.372L159.832 28.7438L157.79 27.016L158.105 26.7019V10.3668L156.691 8.9532L156.063 9.58147L157.162 10.6809V26.5448V26.5448ZM164.23 20.4192V11.3092L162.659 9.73854L160.932 11.3092V19.6338C161.717 19.948 163.916 20.2621 164.23 20.4192ZM163.759 23.7176C163.916 23.4035 164.23 23.0893 164.387 22.9323L160.932 22.304V23.2464L163.759 23.7176ZM162.974 9.58147L164.701 11.3092V20.4192L165.644 19.948V10.6809L163.759 8.79613L162.974 9.58147V9.58147ZM2.13594 14.6076C2.13594 10.5239 5.12023 7.85372 7.94746 6.59718L8.10453 6.91131C7.16212 8.01079 6.53384 9.11026 6.53384 11.6234C6.53384 14.4506 7.31919 16.3354 8.41866 17.5919C8.7328 17.1207 9.04693 16.4925 9.04693 15.8642V11.7804L14.0731 8.16786L14.2302 8.48199C13.916 8.9532 13.6019 9.58147 13.6019 10.5239V13.194C13.6019 15.0789 10.6176 17.1207 8.7328 17.749C9.98934 19.0056 11.7171 19.4768 13.6019 19.4768C14.2302 19.4768 14.8585 19.4768 15.4867 19.3197V7.85372C13.759 7.69665 12.1883 7.38252 10.7747 6.91131C9.204 6.44011 7.63332 5.9689 6.37678 5.9689C4.33489 5.9689 1.8218 6.59718 1.8218 9.58147V10.5239L1.3506 10.6809C1.03646 9.73854 0.879395 8.79613 0.879395 8.01079C0.879395 4.39822 3.54955 1.25686 7.79039 1.25686C9.51814 1.25686 11.2459 1.72807 12.8166 2.19927C14.3872 2.67047 15.9579 3.14168 17.5286 3.14168C18.3139 3.14168 18.7852 2.67047 18.7852 1.88513C18.7852 1.09979 18.471 0.785657 17.8427 0.628589V0.314453C19.7276 0.628589 21.6124 1.72807 21.6124 4.08409C21.7694 6.44011 19.7276 7.85372 16.2721 7.85372H15.9579V19.4768C18.1569 19.0056 19.7276 18.0631 20.827 16.1783L21.1412 16.3354C19.8846 20.2621 16.9003 24.0317 11.7171 24.0317C6.53384 24.0317 2.13594 20.8904 2.13594 14.6076V14.6076ZM16.2721 6.44011C12.5024 6.44011 9.04693 4.55529 6.37678 4.55529C4.49196 4.55529 2.45008 5.34063 1.8218 7.38252H1.97887C2.76421 5.9689 4.64903 5.4977 6.37678 5.4977C9.204 5.4977 12.5024 7.38252 16.2721 7.38252C19.2564 7.38252 21.1412 6.28304 21.2982 3.92702H21.1412C20.827 5.81184 19.2564 6.44011 16.2721 6.44011V6.44011ZM5.43437 8.79613C4.02076 10.2097 2.76421 12.0946 2.76421 14.6076C2.76421 20.5762 6.69091 23.5605 11.8742 23.5605C15.0155 23.5605 17.2145 21.8328 18.471 20.5762L18.3139 20.4192C16.9003 21.6757 14.8585 22.6181 11.7171 22.6181C7.63332 22.6181 3.70662 20.105 3.70662 14.6076C3.70662 12.4087 4.49196 10.2097 5.43437 8.79613V8.79613ZM10.4605 15.5501V11.1521L9.51814 11.9375V16.0213C9.51814 16.4925 9.36107 16.8066 9.36107 17.1207H9.51814C9.98934 16.6495 10.4605 16.1783 10.4605 15.5501ZM58.0522 14.6076C58.0522 10.5239 61.0365 7.85372 63.8637 6.59718L64.0208 6.91131C62.9213 8.16786 62.293 9.26733 62.293 11.6234C62.293 14.4506 63.0783 16.3354 64.1778 17.5919C64.492 17.1207 64.8061 16.4925 64.8061 15.8642V11.7804L69.9893 8.01079L70.1464 8.32492C69.6752 8.9532 69.5181 9.58147 69.5181 10.5239V13.194C69.5181 15.0789 66.5338 17.1207 64.649 17.749C65.9056 19.0056 67.6333 19.4768 69.5181 19.4768C70.1464 19.4768 70.7747 19.4768 71.403 19.3197V7.85372C69.6752 7.69665 68.1045 7.38252 66.6909 6.91131C65.1202 6.44011 63.5495 5.9689 62.293 5.9689C60.2511 5.9689 57.738 6.59718 57.738 9.58147V10.5239L57.4239 10.6809C57.1098 9.73854 56.9527 8.79613 56.9527 8.01079C56.9527 4.39822 59.6228 1.25686 63.8637 1.25686C65.5914 1.25686 67.3192 1.72807 68.8899 2.19927C70.4605 2.67047 72.0312 3.14168 73.6019 3.14168C74.3872 3.14168 74.8584 2.67047 74.8584 1.88513C74.8584 1.09979 74.5443 0.785657 73.916 0.628589V0.314453C75.8009 0.628589 77.6857 1.72807 77.6857 4.08409C77.6857 6.91131 75.6438 8.16786 72.1883 8.16786H71.8742V19.7909C74.0731 19.3197 75.6438 18.3773 76.7433 16.4925L77.0574 16.6495C75.8009 20.5762 72.8166 24.3459 67.6333 24.3459C62.4501 24.0317 58.0522 20.8904 58.0522 14.6076V14.6076ZM72.1883 6.44011C68.4187 6.44011 64.9632 4.55529 62.293 4.55529C60.5653 4.55529 58.5234 5.34063 57.738 7.38252H57.8951C58.6804 5.9689 60.5653 5.4977 62.293 5.4977C65.1202 5.4977 68.4187 7.38252 72.1883 7.38252C75.1726 7.38252 77.0574 6.28304 77.2145 3.92702H77.0574C76.5862 5.81184 75.1726 6.44011 72.1883 6.44011V6.44011ZM61.3506 8.79613C59.937 10.2097 58.6804 12.0946 58.6804 14.6076C58.6804 20.5762 62.6071 23.5605 67.7904 23.5605C70.9317 23.5605 73.1307 21.8328 74.3872 20.5762L74.2302 20.4192C72.8166 21.6757 70.7747 22.6181 67.6333 22.6181C63.5496 22.6181 59.6229 20.105 59.6229 14.6076C59.6229 12.4087 60.4082 10.2097 61.3506 8.79613V8.79613ZM66.3768 15.5501V11.1521L65.4344 11.7804V15.8642C65.4344 16.3354 65.2773 16.6495 65.2773 16.9637H65.4344C65.9056 16.6495 66.3768 16.1783 66.3768 15.5501Z" fill="#1D1D1B"/>
</g>
<defs>
<clipPath id="clip0_1403_10645">
<rect width="183.77" height="30" fill="white" transform="translate(0.879395)"/>
</clipPath>
</defs>
</svg>
