<svg width="71" height="30" viewBox="0 0 71 30" fill="none" xmlns="http://www.w3.org/2000/svg">
<g clip-path="url(#clip0_1403_10647)">
<path d="M14.6389 29.8521H12.0112V22.0117H14.2789C15.8898 22.0117 16.9493 22.7317 16.9493 24.0567C16.9493 24.6498 16.6734 25.296 16.0169 25.6561V25.6884C17.1927 26.1015 17.3729 27.1078 17.3729 27.5533C17.3729 29.1943 16.1115 29.8521 14.6389 29.8521ZM14.3216 23.2603H13.3891V25.1887H14.4174C14.9044 25.1887 15.5829 25.0722 15.5829 24.2136C15.5817 23.4415 14.9044 23.2603 14.3216 23.2603ZM14.5443 26.397H13.3891V28.6011H14.5547C15.1375 28.6011 15.9857 28.4845 15.996 27.4783C15.996 26.5354 15.1906 26.397 14.5443 26.397Z" fill="black"/>
<path d="M23.7722 29.1001C23.2425 29.6829 22.5224 30.0003 21.6846 30.0003C21.0914 30.0003 20.1693 29.7994 19.5657 29.1105C18.983 28.4424 18.8457 27.8181 18.8457 26.8533V22.011H20.2767V26.8429C20.2767 27.3298 20.2974 27.8815 20.6264 28.2624C20.8917 28.612 21.3048 28.7389 21.6753 28.7389C22.0884 28.7389 22.5017 28.6015 22.767 28.23C23.0429 27.8481 23.0636 27.361 23.0636 26.8521V22.0098H24.4946V26.8417C24.4935 27.9126 24.2604 28.5589 23.7722 29.1001Z" fill="black"/>
<path d="M28.6882 30.0003C26.94 30.0003 26.1448 29.0148 26.0605 27.585H27.48C27.5539 28.5071 28.2117 28.7933 28.6779 28.7933C29.3242 28.7933 29.8435 28.2843 29.8435 27.6588C29.8435 26.8221 29.1546 26.6097 28.1689 26.2394C27.5539 26.027 26.1979 25.5711 26.1979 24.0882C26.1979 22.7 27.4477 21.8633 28.7091 21.8633C29.4408 21.8633 30.1816 22.1391 30.6375 22.6791C31.0194 23.135 31.0933 23.5908 31.1244 24.0041H29.7154C29.652 23.6013 29.4084 23.0715 28.6663 23.0715C28.0836 23.0715 27.6174 23.4951 27.6174 24.0572C27.6174 24.7772 28.1158 24.9365 29.3865 25.4351C30.7216 25.9544 31.2618 26.7171 31.2618 27.66C31.263 28.8452 30.447 30.0003 28.6882 30.0003Z" fill="black"/>
<path d="M32.9155 29.8521V22.0117H34.335V29.8521H32.9155Z" fill="black"/>
<path d="M42.674 30.0003H42.2713L37.5986 24.7346H37.5559V29.8526H36.2207V21.8633H36.6235L41.3064 27.1083H41.3491V22.0122H42.674V30.0003Z" fill="black"/>
<path d="M44.5596 29.8521V22.0117H48.8929V23.2615H45.9363V25.2534H48.4048V26.5032H45.9363V28.6011H48.8929V29.851H44.5596V29.8521Z" fill="black"/>
<path d="M53.1096 30.0003C51.3612 30.0003 50.5661 29.0148 50.4819 27.585H51.9014C51.9752 28.5071 52.6319 28.7933 53.0993 28.7933C53.7455 28.7933 54.2648 28.2843 54.2648 27.6588C54.2648 26.8221 53.5758 26.6097 52.5903 26.2394C51.9764 26.027 50.6192 25.5711 50.6192 24.0882C50.6192 22.7 51.869 21.8633 53.1303 21.8633C53.862 21.8633 54.6029 22.1391 55.0587 22.6791C55.4396 23.135 55.5146 23.5908 55.5458 24.0041H54.1367C54.0732 23.6013 53.8298 23.0715 53.0877 23.0715C52.5048 23.0715 52.0386 23.4951 52.0386 24.0572C52.0386 24.7772 52.5372 24.9365 53.8077 25.4351C55.143 25.9544 55.683 26.7171 55.683 27.66C55.6842 28.8452 54.8684 30.0003 53.1096 30.0003Z" fill="black"/>
<path d="M59.7005 30.0003C57.9521 30.0003 57.1569 29.0148 57.0728 27.585H58.4922C58.566 28.5071 59.2226 28.7933 59.69 28.7933C60.3363 28.7933 60.8556 28.2843 60.8556 27.6588C60.8556 26.8221 60.1667 26.6097 59.1812 26.2394C58.5672 26.027 57.21 25.5711 57.21 24.0882C57.21 22.7 58.4598 21.8633 59.7212 21.8633C60.4529 21.8633 61.1937 22.1391 61.6496 22.6791C62.0304 23.135 62.1054 23.5908 62.1366 24.0041H60.7275C60.6641 23.6013 60.4205 23.0715 59.6784 23.0715C59.0957 23.0715 58.6295 23.4951 58.6295 24.0572C58.6295 24.7772 59.1281 24.9365 60.3986 25.4351C61.7339 25.9544 62.2739 26.7171 62.2739 27.66C62.2751 28.8452 61.4592 30.0003 59.7005 30.0003Z" fill="black"/>
<path d="M58.1191 0.679762H59.8122V17.5759H58.2843V17.7581H70.7535V11.4053H70.6669C70.3657 18.034 62.6914 17.5759 62.6914 17.5759L62.7342 17.5828V9.05221C64.2333 9.05221 66.2712 8.8364 66.5724 12.7128H66.6255V5.25778H66.5724C66.1858 8.83525 64.1962 8.86064 62.7342 8.86064V0.646295V0.712075C65.6146 0.712075 68.7697 0.145449 69.994 6.3241H70.0633V0.507812H58.1191V0.679762Z" fill="black"/>
<path d="M58.468 0.677453V0.507812H54.9148V0.677453H56.4865V13.3013C56.4288 16.4702 54.1288 17.9233 52.3551 17.8586C49.1008 17.7409 48.7269 14.6608 48.7269 14.026V0.677453H50.2837V0.507812H44.2285V0.677453H45.8349L45.8302 12.4808C45.8302 15.6452 47.4378 18.0859 52.1325 18.0859C55.2805 18.0859 56.7255 15.4709 56.6931 13.3025V0.677453H58.468Z" fill="black"/>
<path d="M43.0122 10.662H44.3324V10.4912H38.9039V10.662H40.298V14.4853C40.298 16.2545 39.5351 17.8701 37.1186 17.9174C35.3807 17.9417 34.4262 16.9572 33.9172 15.5943C33.3669 14.1356 33.1638 12.6054 33.1638 9.13757C33.1638 6.91376 33.3669 3.61325 34.1296 2.13033C34.4896 1.43676 35.1475 0.210033 37.0759 0.216957C39.4947 0.226188 40.9026 2.20188 41.9424 6.33906H41.9943V0H41.939C41.43 1.2198 39.5132 0.623174 39.5132 0.623174C38.4539 0.288505 37.9875 0.049623 37.0539 0.049623C34.065 0.049623 29.9521 3.08702 29.9521 9.35337C29.9521 14.4715 33.0252 18.0858 37.2225 18.0858C38.9604 18.0858 40.0209 16.82 41.5038 16.82C41.9702 16.82 42.8252 17.1119 42.9741 17.8527H43.0098L43.0122 10.662Z" fill="black"/>
<path d="M25.204 9.04063C25.204 10.2616 25.1082 14.1622 24.0892 16.101C23.4522 17.3462 22.3489 17.8712 21.0529 17.8712C19.7581 17.8712 18.6537 17.345 18.0178 16.101C16.9989 14.1622 16.903 10.2604 16.903 9.04063C16.903 7.81967 16.9989 4.03793 18.0178 2.02763C18.6342 0.782435 19.7581 0.257354 21.0529 0.257354C22.3477 0.257354 23.4729 0.78359 24.0892 2.02763C25.1082 4.03793 25.204 7.81967 25.204 9.04063ZM28.4838 9.04063C28.4838 3.63172 24.5992 0.0888672 21.0541 0.0888672C17.5089 0.0888672 13.6245 3.63172 13.6245 9.04063C13.6245 14.4495 17.637 18.0398 21.0541 18.0398C24.4711 18.0398 28.4838 14.4495 28.4838 9.04063Z" fill="black"/>
<path d="M12.0252 0.509766V0.674791H13.6259L9.68604 13.8595L4.92684 0.674791H6.30243V0.509766H0.563477V0.674791H2.13872L8.59202 17.8513H8.68434L13.8209 0.674791H15.1942V0.509766H12.0252Z" fill="black"/>
</g>
<defs>
<clipPath id="clip0_1403_10647">
<rect width="70.2" height="30" fill="white" transform="translate(0.563477)"/>
</clipPath>
</defs>
</svg>
