<svg width="103" height="30" viewBox="0 0 103 30" fill="none" xmlns="http://www.w3.org/2000/svg">
<g clip-path="url(#clip0_1403_10661)">
<path d="M85.9184 30C94.6766 30 102.794 26.8385 102.794 14.9957C102.794 3.15295 94.6681 0 85.9184 0H78.0318L74.8788 11.8001V30H85.9184ZM83.6712 22.3099V7.69012H86.0722C91.5578 7.69012 93.9161 9.6041 93.9161 15.0043C93.9161 20.4044 91.5578 22.327 86.0722 22.327L83.6712 22.3099ZM42.9563 30H51.5009L55.7732 13.996L60.0454 30H68.6755L76.7244 0H68.6327L64.4374 16.397L60.0796 0H51.9452L47.5191 16.6021L43.5202 1.04244L39.359 16.6363L42.9563 30V30ZM8.71818 30H17.3567L21.629 13.9618L25.9013 30H34.4459L42.4778 0H34.5142L30.242 16.5167L25.8757 0H17.7669L13.4091 16.397L9.22231 0H0.677734L8.71818 30V30Z" fill="black"/>
</g>
<defs>
<clipPath id="clip0_1403_10661">
<rect width="102.116" height="30" fill="white" transform="translate(0.677734)"/>
</clipPath>
</defs>
</svg>
