<svg width="173" height="24" viewBox="0 0 173 24" fill="none" xmlns="http://www.w3.org/2000/svg">
<g clip-path="url(#clip0_332_11192)">
<path d="M157.696 17.5141C157.886 18.9419 158.267 19.9889 158.743 20.7504C159.409 21.7974 160.171 22.4637 161.027 22.9396C161.884 23.4156 163.121 23.6059 164.644 23.6059C166.167 23.6059 167.309 23.4156 168.261 22.9396C169.118 22.4637 169.975 21.7974 170.641 20.7504C171.117 19.9889 171.498 18.9419 171.688 17.5141C171.878 16.0863 172.069 14.1826 172.069 11.803C172.069 9.42334 171.974 7.51963 171.783 6.09185C171.593 4.66408 171.212 3.61704 170.736 2.85556C170.07 1.80852 169.308 1.14222 168.357 0.666296C167.5 0.19037 166.262 0 164.739 0C163.217 0 162.074 0.19037 161.122 0.666296C160.266 1.14222 159.409 1.80852 158.838 2.85556C158.362 3.61704 157.981 4.66408 157.791 6.09185C157.601 7.51963 157.41 9.42334 157.41 11.803C157.41 14.1826 157.505 16.0863 157.696 17.5141ZM162.36 4.75926C162.741 3.80741 163.597 3.33148 164.739 3.33148C165.882 3.33148 166.643 3.80741 167.119 4.75926C167.5 5.71111 167.785 8.09074 167.785 11.803C167.785 15.5152 167.595 17.8948 167.119 18.8467C166.738 19.7985 165.882 20.2744 164.739 20.2744C163.597 20.2744 162.741 19.7985 162.36 18.8467C161.884 17.8948 161.694 15.5152 161.694 11.8982C161.694 8.09074 161.884 5.71111 162.36 4.75926ZM152.08 23.0348V4.28333H156.934V0.571111H143.132V4.28333H147.987V23.0348H152.08V23.0348ZM132.567 23.0348L133.614 17.4189H138.468L139.611 23.0348H144.084L138.944 0.571111H133.328L128.284 23.0348H132.567V23.0348ZM136.089 4.56889L137.897 13.9922H134.375L136.089 4.56889ZM126.285 23.0348V10.7559H119.336V14.373H122.192V15.1344C122.192 16.943 122.001 18.1804 121.525 18.9419C121.049 19.7033 120.288 20.0841 119.146 20.0841C118.004 20.0841 117.242 19.513 116.861 18.4659C116.481 17.4189 116.195 15.2296 116.195 12.0885C116.195 8.09074 116.385 5.61593 116.861 4.66408C117.337 3.71222 118.099 3.2363 119.336 3.2363C120.288 3.2363 121.049 3.61704 121.621 4.28333C122.096 4.94963 122.382 5.99667 122.382 7.32926V7.51963H126.285V7.04371C126.285 4.66408 125.714 2.85556 124.571 1.71333C123.429 0.571111 121.621 0 119.241 0C117.813 0 116.576 0.19037 115.624 0.666296C114.672 1.14222 113.911 1.71333 113.339 2.66519C112.864 3.42667 112.483 4.4737 112.292 5.8063C112.102 7.13889 111.912 8.94741 111.912 11.1367C111.912 15.8959 112.388 19.1322 113.339 20.9407C114.291 22.7493 115.909 23.6059 118.289 23.6059C119.622 23.6059 120.574 23.4156 121.335 22.9396C122.096 22.4637 122.668 21.7022 123.048 20.6552L123.334 23.13H126.285V23.0348ZM108.58 0.571111H104.392V23.0348H108.58V0.571111ZM91.1613 23.0348V13.1356H92.5891C94.3024 13.1356 95.4446 13.4211 96.0157 13.897C96.5868 14.373 96.8724 15.3248 96.8724 16.5622V17.1333L96.9676 19.513C96.9676 20.4648 97.0628 21.1311 97.0628 21.7022C97.158 22.1782 97.2531 22.6541 97.3483 23.0348H102.298C101.917 22.6541 101.632 22.1782 101.441 21.7022C101.251 21.2263 101.156 20.56 101.156 19.7033L101.061 16.7526V16.467C100.965 13.6115 99.9183 11.9933 97.9194 11.4222C98.9665 11.2319 99.728 10.7559 100.299 9.89926C100.87 9.04259 101.061 7.90037 101.061 6.47259C101.061 4.37852 100.585 2.85556 99.5376 1.99889C98.5857 1.04704 96.8724 0.666296 94.6831 0.666296H87.1635V23.13H91.1613V23.0348ZM91.1613 3.71222H93.2554C94.588 3.71222 95.5398 3.90259 96.1109 4.37852C96.5869 4.85445 96.8724 5.61593 96.8724 6.75815C96.8724 7.99556 96.682 8.85222 96.2061 9.32815C95.7302 9.80408 94.8735 10.0896 93.6361 10.0896H91.2565V3.71222H91.1613ZM73.3617 23.0348L74.4087 17.4189H79.2631L80.4054 23.0348H84.8791L79.8342 0.571111H74.2183L69.1735 23.0348H73.3617ZM76.8835 4.56889L78.692 13.9922H75.1702L76.8835 4.56889ZM60.5116 23.0348V19.2274H52.992V0.571111H48.8039V23.0348H60.5116ZM46.1387 23.0348V19.2274H38.619V13.0404H45.3772V9.51852H38.5239V4.28333H45.9483V0.571111H34.4309V23.0348H46.1387ZM21.4857 23.0348L24.8172 15.5152L28.0535 23.0348H32.8127L27.292 11.6126L32.7176 0.571111H28.0535L25.0076 7.61482L22.0568 0.571111H17.3927L22.6279 11.6126L17.1072 23.0348H21.4857V23.0348ZM4.92347 23.0348L5.97051 17.4189H10.825L11.9672 23.0348H16.4409L11.3009 0.571111H5.68495L0.640137 23.0348H4.92347ZM8.44533 4.56889L10.2538 13.9922H6.63681L8.44533 4.56889Z" fill="black"/>
</g>
<defs>
<clipPath id="clip0_332_11192">
<rect width="171.429" height="24" fill="white" transform="translate(0.640137)"/>
</clipPath>
</defs>
</svg>
