<svg width="37" height="24" viewBox="0 0 37 24" fill="none" xmlns="http://www.w3.org/2000/svg">
<path d="M36.8448 1.45519C36.3136 3.6436 35.4024 7.99396 34.5292 12.2786L34.3026 13.3934C33.9272 15.244 33.5659 17.0456 33.253 18.6151L32.9854 19.96C32.6484 21.6564 32.3961 22.9395 32.2876 23.4929C32.1564 24.1599 31.4263 23.8773 31.2357 23.6164C30.3888 22.4552 29.4346 22.437 29.5418 21.6646C30.0725 17.8203 31.9837 8.17525 32.4818 5.90228C29.9402 11.0657 27.3064 17.5201 25.9542 21.1796C25.6669 21.9568 25.1451 21.8998 24.8197 21.3311C24.3622 20.5325 23.4746 20.1247 23.3282 19.181C22.8635 16.1799 23.8588 10.46 23.9975 6.84108C22.6146 10.794 20.2925 18.469 19.2755 21.9365C18.8549 23.3713 17.4589 23.1371 17.83 21.7388C19.3758 15.9195 22.7046 5.62743 24.1463 1.92621C24.485 1.05668 25.3723 1.08656 26.1093 0.726368C27.4359 0.0778979 28.0944 0.164223 28.1087 0.819063C28.1275 1.67144 28.0002 2.80132 27.9095 3.62185C27.417 8.07266 26.593 11.7099 26.5305 16.2805C28.6986 10.7149 30.5175 6.84676 32.8582 2.08161C33.6023 0.56577 34.0762 0.847675 34.6868 0.578214C37.0667 -0.471705 37.1558 0.173238 36.8448 1.45519ZM17.5506 0.000318157L17.68 0.011199C18.101 0.111634 18.0667 0.604014 17.8094 1.27639C17.0502 3.26031 15.9975 5.86674 14.7937 8.94006C15.5505 8.85442 15.9609 8.82542 15.9609 8.82542C17.0474 8.69236 17.2497 9.23098 16.9438 9.8044C16.7001 10.2613 16.4066 9.95657 15.3899 11.4593C14.8171 12.3061 13.8819 12.5297 13.3625 12.6426C12.1112 15.9273 10.7703 19.5913 9.46734 23.4966C9.2777 24.0652 8.72379 23.9405 8.55727 23.7095C7.94535 22.8622 7.49412 22.8342 7.01976 22.1489C6.96274 22.0379 6.85116 21.887 6.91826 21.615C7.26702 20.2016 8.1932 17.2971 9.60194 13.4733C7.82725 13.8546 5.90719 14.2646 5.11452 14.4474C4.16323 16.9405 3.23547 19.4413 2.35652 21.9119C1.81121 23.4444 0.391893 23.1481 0.889969 21.6997C1.68333 19.3923 2.55911 16.996 3.43727 14.6721C2.45416 14.568 2.12162 13.8796 1.57215 13.3045C1.35998 13.0823 0.897381 13.1136 0.670875 12.8021C0.263421 12.2425 0.304038 11.9939 1.24495 11.7246C2.54073 11.3537 3.77841 11.0291 4.94741 10.745C6.53739 6.6762 7.9743 3.18594 8.74029 1.32352C9.33077 -0.111577 10.8527 0.0220754 10.2745 1.43778C9.09962 4.31493 7.89495 7.3039 6.70599 10.3348C8.36871 9.96421 9.85681 9.68103 11.1282 9.46566C12.1225 6.93321 13.2688 4.15394 14.5495 1.23798C14.633 1.04818 14.8765 0.779604 15.1304 0.73649C15.9301 0.60078 17.2305 -0.0961936 17.68 0.011199L17.5506 0.000318157ZM14.6836 14.06C15.5757 13.0103 17.6455 13.942 16.5985 15.558C16.3463 15.9472 16.0515 16.3149 15.744 16.6875C15.8458 17.0091 15.9559 17.35 16.0661 17.6851C16.1638 17.592 16.2593 17.5031 16.3514 17.424C17.0038 16.8634 17.627 17.4195 16.9819 18.3674C16.8431 18.5712 16.6864 18.7905 16.5145 19.0064C16.5961 19.237 16.6688 19.4352 16.7266 19.5823C17.0601 20.4303 16.1843 20.6429 15.9019 19.9405C15.8772 19.8792 15.8515 19.8135 15.825 19.7451C15.2927 20.2127 14.6769 20.5071 14.019 20.3043C12.9365 19.9704 12.6611 18.4593 13.6717 17.295C14.0772 16.8279 14.3824 16.5039 14.6374 16.245C14.5605 15.9957 14.4983 15.7868 14.4576 15.6405C14.3264 15.1691 14.2079 14.6198 14.6836 14.06ZM15.0507 17.5369C14.9591 17.6535 14.8681 17.7716 14.7788 17.8933C14.2465 18.618 14.5617 18.8759 14.9572 18.6361C15.0822 18.5603 15.2066 18.468 15.3294 18.3667C15.2352 18.0918 15.1411 17.8111 15.0507 17.5369ZM15.6654 15.2002C16.3245 14.4624 15.0215 14.1536 15.3215 15.2821C15.3383 15.3458 15.3593 15.4206 15.3828 15.503C15.4744 15.4088 15.5671 15.3102 15.6654 15.2002Z" fill="black"/>
</svg>
