<svg width="69" height="24" viewBox="0 0 69 24" fill="none" xmlns="http://www.w3.org/2000/svg">
<path d="M48.0654 12.0476C48.1063 18.4791 42.8681 23.8993 36.1157 23.8993C29.4452 23.8993 24.166 18.56 24.166 12.0476C24.166 5.49477 29.6089 0.236328 36.1157 0.236328C42.7044 0.236328 48.0654 5.49477 48.0654 12.0476ZM36.1566 3.59364C35.5019 3.59364 34.8471 3.67454 34.1923 3.83634C31.5323 4.52398 29.6089 6.10151 28.463 8.52849C27.6445 10.2274 27.4399 12.0476 27.8901 13.9083C28.5039 16.3757 29.9362 18.2364 32.1461 19.4499C34.5197 20.7442 36.9751 20.906 39.4715 19.8139C41.4358 18.9645 42.909 17.5083 43.8094 15.6072C44.5869 13.9892 44.7915 12.2903 44.4641 10.551C44.0549 8.44759 42.9909 6.7487 41.313 5.41387C39.7988 4.20038 38.0801 3.63409 36.1566 3.59364Z" fill="black"/>
<path d="M51.3394 20.5015C52.0351 19.6925 52.7308 18.8835 53.4265 18.0745C53.4674 17.9936 53.5492 17.9532 53.5902 17.8723C53.672 17.9532 53.7539 17.9936 53.7948 18.0745C54.9816 19.1262 56.332 19.8543 57.8871 20.2588C59.3195 20.6228 60.7109 20.5419 62.1023 20.0565C62.5934 19.8948 63.0435 19.6521 63.4528 19.288C64.1894 18.6813 64.5577 17.8723 64.5577 16.9419C64.5577 16.4565 64.394 16.0116 64.1075 15.6475C63.9029 15.3644 63.6164 15.1217 63.33 14.9195C62.9617 14.6768 62.5934 14.4745 62.1841 14.3127C61.4066 13.9487 60.5881 13.706 59.7696 13.4633C58.7875 13.1397 57.7644 12.8565 56.8231 12.452C56.1274 12.1689 55.4317 11.8857 54.8179 11.4812C54.2859 11.1576 53.7948 10.7936 53.3446 10.3487C52.4852 9.49922 51.9941 8.44753 51.8304 7.27449C51.7077 6.3037 51.8304 5.33291 52.1578 4.40257C52.4852 3.51268 53.0582 2.78459 53.7539 2.17785C54.6542 1.40931 55.6363 0.923911 56.7822 0.600314C58.0508 0.236269 59.3604 0.155371 60.6699 0.27672C62.798 0.478968 64.7214 1.24751 66.4402 2.50145C66.522 2.58234 66.6039 2.62279 66.6857 2.70369C66.7266 2.70369 66.7266 2.74414 66.7676 2.78459C66.7676 2.82504 66.7266 2.86549 66.7266 2.90594C66.1537 3.75538 65.6217 4.60482 65.0488 5.45426C65.0079 5.49471 65.0079 5.53516 64.9669 5.57561C64.8851 5.49471 64.8032 5.45426 64.7214 5.41381C63.6983 4.68572 62.6343 4.15988 61.4066 3.87673C60.1379 3.55313 58.8284 3.55313 57.5597 3.91718C57.1096 4.03853 56.7004 4.24078 56.2911 4.48347C55.841 4.80707 55.4726 5.25201 55.3499 5.81831C55.1453 6.66775 55.309 7.43629 55.8819 8.08348C56.1274 8.36663 56.4139 8.56888 56.7413 8.77112C57.1914 9.05427 57.6825 9.29697 58.2145 9.45877C59.0739 9.74191 59.9333 10.0655 60.7927 10.3487C61.734 10.6723 62.6752 10.9554 63.5755 11.3599C64.2303 11.643 64.8851 11.9666 65.4989 12.3711C66.0309 12.7352 66.522 13.1801 66.9313 13.6655C67.5042 14.3936 67.8316 15.2026 67.9544 16.0925C68.2408 18.2363 67.586 20.0565 66.0309 21.5127C65.0897 22.4026 63.9848 23.0094 62.798 23.3734C61.4475 23.8184 60.0561 23.9397 58.6647 23.8588C57.5598 23.7779 56.4548 23.5757 55.4317 23.2116C53.9585 22.6858 52.6898 21.9172 51.5849 20.8251C51.544 20.7846 51.4621 20.7037 51.4212 20.6633C51.3803 20.5824 51.3394 20.5419 51.3394 20.5015Z" fill="black"/>
<path d="M21.4652 4.15993C21.3015 4.36218 19.2144 6.34421 18.9689 6.50601C18.887 6.42511 18.8052 6.34421 18.7643 6.30376C17.6184 5.09027 16.227 4.28128 14.5901 3.87679C11.4799 3.10824 8.41059 4.07903 6.32349 6.30376C5.1367 7.55769 4.40007 9.01388 4.11361 10.6723C3.78622 12.4521 4.07268 14.1914 4.93208 15.8094C6.11887 18.0341 7.91951 19.5308 10.3749 20.2184C11.3571 20.5015 12.3393 20.542 13.3214 20.4611C14.6719 20.3398 15.9405 19.9353 17.1273 19.2072C17.7412 18.8431 18.2732 18.3982 18.7643 17.8723C18.8461 17.7914 18.887 17.751 18.9689 17.6701C18.9689 17.6701 18.9689 17.6701 19.0098 17.6296C19.0507 17.6296 19.0917 17.6701 19.1326 17.7105C19.9101 18.3577 20.6877 19.0454 21.4652 19.6926C21.5062 19.733 21.5471 19.7735 21.588 19.8139C21.5471 19.8948 21.4652 19.9353 21.4243 20.0162C19.7464 21.8364 17.7003 23.0094 15.2858 23.5757C14.3036 23.8184 13.2805 23.8993 12.2574 23.8993C6.5281 23.778 1.98558 19.8139 0.839716 14.7173C0.635098 13.7465 0.512328 12.7757 0.553251 11.7644C0.676022 6.06106 4.68654 1.69251 9.72015 0.519472C11.0297 0.236325 12.3802 0.155426 13.7307 0.276775C15.8178 0.479023 17.7412 1.16666 19.46 2.3397C20.1148 2.78465 20.7286 3.31049 21.2606 3.91723C21.3015 3.99813 21.3834 4.03858 21.4243 4.11948C21.4652 4.11948 21.4652 4.15993 21.4652 4.15993Z" fill="black"/>
</svg>
