<svg width="61" height="25" viewBox="0 0 61 25" fill="none" xmlns="http://www.w3.org/2000/svg">
<g clip-path="url(#clip0_1439_2966)">
<path d="M8.25134 5.26172C4.02219 5.26172 0.498047 7.05593 0.498047 12.469C0.498047 16.7573 2.86778 19.4579 8.36054 19.4579C14.8258 19.4579 15.2402 15.199 15.2402 15.199H12.1075C12.1075 15.199 11.4358 17.4923 8.16944 17.4923C5.50905 17.4923 3.5956 15.6951 3.5956 13.1761H15.5678V11.5954C15.5678 9.10332 13.9858 5.26172 8.25134 5.26172V5.26172ZM8.14214 7.28194C10.6745 7.28194 12.401 8.83335 12.401 11.1586H3.66488C3.66488 8.69006 5.91832 7.28194 8.14214 7.28194V7.28194Z" fill="black"/>
<path d="M15.5658 0.0200195V16.7394C15.5658 17.6885 15.498 19.021 15.498 19.021H18.486C18.486 19.021 18.5932 18.064 18.5932 17.1893C18.5932 17.1893 20.0695 19.4988 24.0835 19.4988C28.3104 19.4988 31.1816 16.5642 31.1816 12.3598C31.1816 8.44844 28.5443 5.30263 24.0903 5.30263C19.9195 5.30263 18.6234 7.55491 18.6234 7.55491V0.0200195H15.5658ZM23.3191 7.37063C26.1895 7.37063 28.0147 9.50096 28.0147 12.3598C28.0147 15.4253 25.9066 17.4308 23.3395 17.4308C20.276 17.4308 18.6234 15.0388 18.6234 12.3871C18.6234 9.91619 20.1063 7.37063 23.3191 7.37063Z" fill="black"/>
<path d="M38.6068 5.26172C32.2444 5.26172 31.8363 8.74547 31.8363 9.30217H35.0032C35.0032 9.30217 35.1692 7.26829 38.3884 7.26829C40.4803 7.26829 42.1012 8.22577 42.1012 10.0666V10.7218H38.3884C33.4593 10.7218 30.8535 12.1637 30.8535 15.0898C30.8535 17.9695 33.2612 19.5364 36.5149 19.5364C40.9492 19.5364 42.3777 17.0862 42.3777 17.0862C42.3777 18.0607 42.4528 19.0211 42.4528 19.0211H45.2681C45.2681 19.0211 45.1589 17.8307 45.1589 17.0691V10.4863C45.1589 6.17007 41.6774 5.26172 38.6068 5.26172V5.26172ZM42.1012 12.6874V13.561C42.1012 14.7004 41.3981 17.5332 37.2589 17.5332C34.9922 17.5332 34.0204 16.402 34.0204 15.0898C34.0204 12.7028 37.2931 12.6874 42.1012 12.6874V12.6874Z" fill="black"/>
<path d="M43.4536 5.80811H47.0163L52.1293 16.0516L57.2305 5.80811H60.4578L51.166 24.0447H47.7807L50.462 18.961L43.4536 5.80811Z" fill="black"/>
</g>
<defs>
<clipPath id="clip0_1439_2966">
<rect width="60" height="24.0648" fill="white" transform="translate(0.478027)"/>
</clipPath>
</defs>
</svg>
