<svg width="92" height="24" viewBox="0 0 92 24" fill="none" xmlns="http://www.w3.org/2000/svg">
<g clip-path="url(#clip0_1439_3385)">
<path d="M20.5598 23.0277H18.0608L17.4797 20.4212C15.3872 22.7837 13.4794 23.559 10.7621 23.559C4.0746 23.559 0.0742188 18.2758 0.0742188 11.9333C0.0742188 5.59075 4.06116 0.304199 10.7621 0.304199C15.6357 0.304199 19.7302 2.88398 20.3247 7.88983H16.499C16.1362 4.98256 13.56 3.47546 10.7621 3.47546C5.98242 3.47546 3.98055 7.67262 3.98055 11.9333C3.98055 16.1939 5.99586 20.3877 10.7621 20.3877C14.7624 20.4512 16.949 18.0486 17.0129 14.2958H11.061V11.3318H20.5598V23.0277Z" fill="#111111"/>
<path d="M30.6427 0.828613H34.8009L43.3962 23.0274H39.2077L37.1118 17.1494H28.2042L26.1082 23.0274H22.0776L30.6427 0.828613ZM29.2656 14.1954H36.0806L32.7352 4.64816H32.6412L29.2656 14.1954Z" fill="#111111"/>
<path d="M44.9648 0.828613H49.0929L59.2836 17.2029H59.344V0.828613H63.0656V23.0274H58.9376L48.7805 6.70664H48.6864V23.0274H44.9648V0.828613Z" fill="#111111"/>
<path d="M66.2466 0.828613H70.3712L80.562 17.2029H80.6258V0.828613H84.3474V23.0274H80.2194L70.0589 6.70664H69.9682V23.0274H66.2466V0.828613Z" fill="#111111"/>
<path d="M87.5552 0.828613H91.4615V23.0274H87.5552V0.828613Z" fill="#111111"/>
</g>
<defs>
<clipPath id="clip0_1439_3385">
<rect width="91.6964" height="23.3918" fill="white" transform="translate(0.0605469 0.304199)"/>
</clipPath>
</defs>
</svg>
