<svg width="278" height="24" viewBox="0 0 278 24" fill="none" xmlns="http://www.w3.org/2000/svg">
<path d="M15.3736 9.88799V2.20698H17.4821V21.1338H15.3736V11.8463H5.68377V21.1338H3.5752V2.20698H5.68377V9.88799H15.3736Z" fill="black"/>
<path d="M33.3465 6.22298L30.108 13.8042H36.5099L33.3465 6.22298ZM29.2549 15.7625L26.9704 21.1343H24.6611L33.397 1.30393L41.9064 21.1343H39.5715L37.3383 15.7625H29.2549Z" fill="black"/>
<path d="M51.0935 10.968H51.7459C54.1313 10.968 56.5404 10.5162 56.5404 7.57922C56.5404 4.46627 54.2568 4.16574 51.7212 4.16574H51.0935V10.968ZM51.0935 21.1343H48.9849V2.2074H51.7212C55.3106 2.2074 58.6489 3.1614 58.6489 7.42898C58.6489 10.3403 56.8172 12.3984 53.9049 12.6495L59.9291 21.1343H57.3441L51.6203 12.8255H51.0935V21.1343Z" fill="black"/>
<path d="M73.5351 16.6408L78.9316 2.20694H81.2161L73.5351 22.2637L65.854 2.20694H68.1376L73.5351 16.6408Z" fill="black"/>
<path d="M88.2954 2.20698H98.1098V4.16526H90.404V9.78813H97.8844V11.7465H90.404V19.1764H98.1098V21.1338H88.2954V2.20698Z" fill="black"/>
<path d="M105.013 2.20698H107.447L112.268 10.6413L117.087 2.20698H119.522L113.322 13.0009V21.1338H111.213V13.0009L105.013 2.20698V2.20698Z" fill="black"/>
<path d="M139.502 1.40367L154.263 16.8676V2.20735H156.372V21.9883L141.612 6.55006V21.1342H139.502V1.40367V1.40367Z" fill="black"/>
<path d="M167.493 21.1343H165.384V2.20747H167.493V21.1343Z" fill="black"/>
<path d="M190.787 6.34896C189.281 4.79298 187.198 3.83902 185.014 3.83902C180.797 3.83902 177.384 7.50356 177.384 11.6713C177.384 15.8371 180.821 19.5026 185.065 19.5026C187.198 19.5026 189.281 18.4982 190.787 16.9927V19.6034C189.155 20.7838 187.147 21.4609 185.14 21.4609C179.792 21.4609 175.273 17.1182 175.273 11.7464C175.273 6.32421 179.717 1.88068 185.14 1.88068C187.247 1.88068 189.106 2.48367 190.787 3.73814V6.34896Z" fill="black"/>
<path d="M211.272 9.88799V2.20698H213.38V21.1338H211.272V11.8463H201.581V21.1338H199.473V2.20698H201.581V9.88799H211.272Z" fill="black"/>
<path d="M223.47 11.6708C223.47 15.9384 226.935 19.5022 231.227 19.5022C235.519 19.5022 238.984 15.9384 238.984 11.6708C238.984 7.37851 235.57 3.8395 231.227 3.8395C226.885 3.8395 223.47 7.37851 223.47 11.6708ZM241.092 11.6955C241.092 17.1435 236.624 21.4604 231.227 21.4604C225.83 21.4604 221.361 17.1435 221.361 11.6955C221.361 6.27433 225.83 1.88122 231.227 1.88122C236.624 1.88122 241.092 6.27433 241.092 11.6955Z" fill="black"/>
<path d="M251.083 19.1764H256.304V21.1348H248.974V2.20699H251.083V19.1764V19.1764Z" fill="black"/>
<path d="M271.994 5.89716C271.24 4.59227 270.337 3.83902 268.729 3.83902C267.048 3.83902 265.592 5.04402 265.592 6.77596C265.592 8.40707 267.273 9.16038 268.554 9.73769L269.809 10.2903C272.269 11.3698 274.352 12.5996 274.352 15.6117C274.352 18.9253 271.693 21.4609 268.402 21.4609C265.365 21.4609 263.106 19.5026 262.504 16.5666L264.562 15.9893C264.839 17.9209 266.32 19.5026 268.353 19.5026C270.387 19.5026 272.245 17.9466 272.245 15.8124C272.245 13.6039 270.513 12.8506 268.755 12.0479L267.599 11.5457C265.392 10.5414 263.483 9.41145 263.483 6.70084C263.483 3.76385 265.968 1.88068 268.78 1.88068C270.888 1.88068 272.672 2.96019 273.675 4.81768L271.994 5.89716" fill="black"/>
</svg>
