<svg width="68" height="24" viewBox="0 0 68 24" fill="none" xmlns="http://www.w3.org/2000/svg">
<path d="M1.08858 23.4149C1.57112 21.9687 1.81216 20.7028 1.81216 18.1714V6.59962C1.81216 4.33918 1.33008 3.07372 0.305664 1.8078V1.74754L6.66378 0V11.2102C7.47752 9.91438 9.04428 8.31726 11.7265 8.31726C14.3784 8.31726 16.247 9.94475 16.247 12.506V18.1719C16.247 20.7032 16.488 21.9388 16.9701 23.4154V23.4757H10.6718V23.4154C11.1538 21.9692 11.3949 20.6126 11.3949 18.2022V12.8073C11.3949 11.5115 10.7624 10.5772 9.34604 10.5772C8.231 10.5772 7.26638 11.2401 6.66378 12.0538V18.1719C6.66378 20.6729 6.90482 21.9388 7.3869 23.4154V23.4757H1.08858V23.4149Z" fill="black"/>
<path d="M25.3691 23.9275C20.7884 23.9275 18.0459 20.6123 18.0459 16.3936C18.0459 11.6924 21.3009 8.31738 25.4896 8.31738C29.6784 8.31738 32.029 11.6924 31.9384 14.7358L22.9578 14.7059C23.1087 19.1357 25.2182 20.5221 27.8701 20.5221C29.9493 20.5221 31.1849 19.6785 31.7571 19.0759L31.908 19.166C31.0947 22.0291 28.8347 23.9275 25.3691 23.9275ZM22.9578 14.1033L27.2372 14.043V12.8976C27.2372 10.035 26.4837 8.85925 25.3084 8.85925C23.7416 8.85972 22.9578 11.3612 22.9578 14.1033Z" fill="black"/>
<path d="M55.4065 18.1719V14.7965C55.4065 12.5963 54.9543 11.3308 53.8696 10.035V9.91447L60.2282 8.16693V18.1719C60.2282 20.6431 60.4697 21.9688 60.9513 23.4155V23.4757H54.653V23.4155C55.0449 21.9384 55.4065 20.673 55.4065 18.1719ZM57.3656 6.3582C55.9189 6.3582 54.774 5.1829 54.774 3.73666C54.774 2.32032 55.9189 1.14502 57.3656 1.14502C58.8119 1.14502 60.0175 2.32032 60.0175 3.73666C60.0175 5.1829 58.8119 6.3582 57.3656 6.3582Z" fill="black"/>
<path d="M62.5327 21.0949C62.5327 19.6785 63.6478 18.5635 65.0641 18.5635C66.4804 18.5635 67.5955 19.6785 67.5955 21.0949C67.5955 22.5112 66.4804 23.6262 65.0641 23.6262C63.6478 23.6262 62.5327 22.5112 62.5327 21.0949Z" fill="black"/>
<path d="M49.3354 9.28902V9.41561C49.938 10.0182 51.58 11.3612 50.6158 13.6212L49.1089 17.5091L46.0384 8.16697L41.3559 9.45392L42.5228 12.8714L42.5209 12.8761C42.5172 12.8738 42.5125 12.8705 42.5088 12.8677L42.5158 12.8878L40.4749 17.9608L37.3259 8.1665L32.3926 9.51838L37.6123 23.6865H38.7577L42.8474 13.8225L46.2154 23.6865H47.3609L53.4139 8.1665L49.3354 9.28902Z" fill="black"/>
</svg>
