<svg width="107" height="24" viewBox="0 0 107 24" fill="none" xmlns="http://www.w3.org/2000/svg">
<path d="M4.85351 0.515137H8.0811L14.1582 15.0721L20.5091 0.515137H23.7367L27.5807 23.412H23.0489L20.9885 9.30169L14.843 23.412H13.3334L7.46179 9.30169L5.12744 23.412H0.595703L4.85351 0.515137Z" fill="black"/>
<path d="M32.976 0.515137V23.412H28.5098V0.515137H32.976Z" fill="black"/>
<path d="M39.5414 0.515137V23.412H35.0752V0.515137H39.5414Z" fill="black"/>
<path d="M41.6436 23.412V0.515137H44.7342L58.6718 15.7807V0.515137H63.138V23.412H60.0444L46.1068 8.10177V23.412H41.6436Z" fill="black"/>
<path d="M74.1221 4.35907V23.415H69.6737V4.35907H64.5107V0.515137H79.2731V4.35907H74.1221Z" fill="black"/>
<path d="M102.756 11.9814C102.756 18.9517 97.7451 23.9271 90.5337 23.9271C83.3222 23.9271 78.3081 18.9487 78.3081 11.9814C78.3081 5.01409 83.3222 0 90.5337 0C97.7451 0 102.756 5.01111 102.756 11.9814ZM98.156 11.9814C98.156 7.34546 94.9969 4.05236 90.5337 4.05236C86.0704 4.05236 82.9113 7.34843 82.9113 11.9814C82.9113 16.6144 86.0704 19.8777 90.5337 19.8777C94.9969 19.8777 98.156 16.6173 98.156 11.9814Z" fill="black"/>
<path d="M103.798 18.5052C104.328 18.5052 104.846 18.6624 105.287 18.9568C105.728 19.2513 106.071 19.6698 106.274 20.1595C106.477 20.6491 106.53 21.1879 106.426 21.7077C106.323 22.2276 106.068 22.705 105.693 23.0798C105.318 23.4546 104.841 23.7098 104.321 23.8132C103.801 23.9166 103.262 23.8635 102.773 23.6607C102.283 23.4579 101.865 23.1144 101.57 22.6737C101.276 22.2331 101.118 21.715 101.118 21.185C101.113 20.8315 101.178 20.4805 101.311 20.1528C101.444 19.8252 101.641 19.5275 101.891 19.2776C102.141 19.0276 102.438 18.8304 102.766 18.6977C103.094 18.5651 103.445 18.4996 103.798 18.5052V18.5052Z" fill="black"/>
</svg>
