<svg width="233" height="24" viewBox="0 0 233 24" fill="none" xmlns="http://www.w3.org/2000/svg">
<g clip-path="url(#clip0_332_11178)">
<path fill-rule="evenodd" clip-rule="evenodd" d="M104.346 3.03994C106.677 0.989537 109.289 0.0576172 113.113 0.0576172C116.565 0.0576172 119.363 1.08277 121.508 3.03994C123.84 5.18347 125.24 8.35227 125.24 11.7075C125.053 15.0626 123.747 18.3245 121.415 20.4683C119.27 22.5185 116.565 23.4505 112.927 23.4505C109.289 23.4505 106.584 22.5185 104.346 20.4683C102.014 18.3245 100.614 15.1559 100.614 11.8007C100.614 8.44555 102.014 5.18347 104.346 3.03994ZM104.626 11.8007C104.626 16.7402 107.984 20.0953 112.833 20.0953C117.778 20.0953 121.042 16.7402 121.042 11.8938C121.136 6.76793 117.778 3.50591 112.741 3.50591C107.984 3.50591 104.626 6.86109 104.626 11.8007ZM4.9129 0.52358L12.7481 13.2918L19.9304 0.52358H25.2471V22.8912H21.3295V5.09036L12.4683 20.375L3.42045 5.09036V22.8912H0.0625V0.52358H4.9129ZM52.5772 20.5613L51.2712 18.3245L51.1779 18.2314L48.0066 12.9191C51.3646 12.2667 52.9501 10.3095 52.9501 7.04753C52.9501 4.53116 51.9242 2.38751 50.2453 1.54873C48.846 0.803172 47.3536 0.52358 43.1562 0.52358H33.0824V22.8912H36.9068V13.385H43.8092L48.3797 20.8409L48.4729 20.9341L49.6857 22.8912H54.0695L52.7637 20.8409C52.717 20.7944 52.6936 20.7478 52.6704 20.7012C52.647 20.6545 52.6238 20.6079 52.5772 20.5613ZM37 10.0299V3.78551H44.8351C46.8872 3.78551 47.6335 3.87875 48.4729 4.43794C49.2193 4.90386 49.6857 5.83589 49.6857 6.95431C49.6857 8.07266 49.2193 9.0047 48.4729 9.47068C47.6335 9.93661 46.7007 10.0299 44.8351 10.0299H37ZM86.2495 0.52358C89.328 0.52358 90.8205 0.803178 92.1258 1.64196C93.8048 2.66711 94.7382 4.6243 94.6446 6.95431C94.6446 9.2843 93.7124 11.2415 92.0334 12.2667C90.6345 13.1054 89.328 13.385 86.1571 13.385H79.0679V22.8912H75.2431V0.52358H86.2495ZM79.1609 10.1231H86.4366C90.0748 10.1231 91.2866 9.2843 91.2866 6.95431C91.2866 5.74267 90.914 4.90386 90.2608 4.43794C89.5152 3.97197 88.5818 3.78551 86.4366 3.78551H79.1609V10.1231ZM151.45 20.6545L150.051 18.2314L146.88 12.9191C150.238 12.2667 151.823 10.3095 151.823 7.04753C151.823 4.53116 150.798 2.38751 149.118 1.54873C147.72 0.803172 146.227 0.52358 142.029 0.52358H131.956V22.8912H135.779V13.4782H142.683L147.252 20.9341L147.346 21.0274L148.559 22.8912H152.943L151.637 20.9341C151.591 20.8876 151.567 20.8409 151.544 20.7944C151.52 20.7478 151.497 20.7012 151.45 20.6545ZM135.779 10.1231V3.87875H143.615C145.667 3.87875 146.413 3.97197 147.252 4.53116C147.999 4.99714 148.465 5.92917 148.465 7.04753C148.465 8.16594 147.999 9.09786 147.252 9.5639C146.507 10.0299 145.573 10.1231 143.615 10.1231H135.779ZM157.7 3.78551V0.52358H176.634H178.594V3.78551H170.105V22.8912H166.281V3.78551H157.7ZM189.414 19.6295V13.1054H199.208V9.84351H189.414V3.78551H203.592V0.52358H185.496V22.8912H204.525V19.6295H202.567H189.414ZM230.922 20.7012C230.945 20.7478 230.968 20.7944 231.015 20.8409L232.321 22.8912H227.938L226.724 20.9341L226.631 20.8409L222.061 13.385H215.158V22.8912H211.334V0.52358H221.408C225.605 0.52358 227.097 0.803172 228.496 1.54873C230.175 2.38751 231.201 4.53116 231.201 7.04753C231.201 10.3095 229.615 12.2667 226.258 12.9191L229.43 18.2314L229.522 18.3245L230.828 20.5613C230.875 20.6079 230.898 20.6545 230.922 20.7012ZM215.25 3.78551V10.0299H223.085C225.045 10.0299 225.884 9.93661 226.724 9.47068C227.471 9.0047 227.936 8.07266 227.936 6.95431C227.936 5.83589 227.471 4.90386 226.724 4.43794C225.884 3.87875 225.139 3.78551 223.085 3.78551H215.25Z" fill="black"/>
</g>
<defs>
<clipPath id="clip0_332_11178">
<rect width="232.258" height="24" fill="white" transform="translate(0.0625)"/>
</clipPath>
</defs>
</svg>
