<svg width="301" height="24" viewBox="0 0 301 24" fill="none" xmlns="http://www.w3.org/2000/svg">
<path d="M19.7863 22.8423V1.1543H16.7245V17.7258L3.84297 1.34019C3.8037 1.29315 3.75626 1.25363 3.70293 1.22355C3.64033 1.1849 3.56904 1.16265 3.4956 1.15885H3.49015H0.754883V22.846H3.73021V6.33005L16.6154 22.6309C16.6625 22.6867 16.72 22.7328 16.7846 22.7667C16.8538 22.8077 16.9317 22.8318 17.0119 22.8369H17.0173L19.7863 22.8423Z" fill="#1D1D1B"/>
<path d="M28.1763 22.846V1.1543H42.4723V4.18645H31.2053V10.4385H41.3345V13.1097H31.2053V19.8548H43.3195V22.846H28.1763Z" fill="#1D1D1B"/>
<path d="M62.8231 4.18373V22.846H59.8331V4.18373H51.3008V1.1543H71.3554V4.18373H62.8231Z" fill="#1D1D1B"/>
<path d="M88.34 11.7954H77.4941V14.4557H88.34V11.7954Z" fill="#1D1D1B"/>
<path d="M107.955 5.13903L104.298 13.2175H111.617L107.955 5.13903ZM115.947 23.0506L112.826 15.9503H103.055L99.817 23.0506H96.5259L106.427 1.24588L107.954 1.1543L109.482 1.24588L119.241 23.0497L115.947 23.0506Z" fill="#1D1D1B"/>
<path d="M137.862 11.7954H127.017V14.4557H137.862V11.7954Z" fill="#1D1D1B"/>
<path d="M161.835 4.16457H152.575V10.4303H161.835C163.609 10.4367 165.28 9.44145 165.28 7.34801C165.28 5.19625 163.654 4.32407 161.835 4.16457ZM161.835 13.6283H152.606V22.846H149.937V1.1543H161.836C165.691 1.1543 167.945 3.45097 167.945 7.35166C167.945 11.1904 165.661 13.632 161.836 13.632" fill="#1D1D1B"/>
<path d="M185.438 20.2506C190.35 20.2506 194.221 16.8203 194.221 12.0289C194.221 7.20017 190.352 3.76628 185.438 3.76628C180.561 3.76628 176.656 7.17648 176.656 12.0016C176.656 16.793 180.561 20.2506 185.438 20.2506ZM185.426 0.745117C192.65 0.745117 197.208 5.89094 197.208 12.0016C197.208 17.9237 192.778 23.2553 185.363 23.2553C178.202 23.2553 173.674 17.9519 173.674 12.0016C173.674 5.92283 178.331 0.745117 185.426 0.745117" fill="#1D1D1B"/>
<path d="M216.543 4.16379H207.406V10.6266H216.543C218.372 10.4371 219.992 9.55754 219.992 7.26078C219.992 5.51633 218.615 4.29412 216.543 4.16197V4.16379ZM218.281 13.5751L224.015 22.8442H220.421L214.805 13.6261H207.401V22.846H204.779V1.1543H216.543C220.512 1.1543 222.771 3.72175 222.771 7.43577C222.771 10.7214 221.582 12.5597 218.281 13.5778" fill="#1D1D1B"/>
<path d="M241.253 4.32329V22.846H238.188V4.32329H229.745V1.1543H249.8V4.32329H241.253Z" fill="#1D1D1B"/>
<path d="M258.19 22.846V1.1543H272.486V4.18645H261.219V10.4385H271.348V13.1106H261.219V19.8548H273.333V22.846H258.19Z" fill="#1D1D1B"/>
<path d="M293.284 4.16379H284.148V10.6266H293.284C295.113 10.4371 296.733 9.55754 296.733 7.26078C296.733 5.51633 295.355 4.29412 293.284 4.16197V4.16379ZM295.022 13.5751L300.755 22.8442H297.166L291.551 13.6261H284.148V22.846H281.519V1.1543H293.284C297.252 1.1543 299.511 3.72175 299.511 7.43577C299.511 10.7214 298.322 12.5597 295.022 13.5778" fill="#1D1D1B"/>
</svg>
