<svg width="144" height="24" viewBox="0 0 144 24" fill="none" xmlns="http://www.w3.org/2000/svg">
<mask id="mask0_1439_3373" style="mask-type:alpha" maskUnits="userSpaceOnUse" x="0" y="0" width="144" height="24">
<path d="M0.782715 0.461426H143.829V23.5382H0.782715V0.461426Z" fill="white"/>
</mask>
<g mask="url(#mask0_1439_3373)">
<path fill-rule="evenodd" clip-rule="evenodd" d="M12.3422 11.9543C15.7808 11.9543 16.4998 9.48409 16.4998 6.42763C16.4998 2.72525 14.9555 0.721571 12.3599 0.721571H8.39585C6.85163 0.721571 6.74741 1.26527 6.74741 5.84997V11.9543H12.3422ZM23.2703 23.3411L23.9021 23.375V23.558H18.1203C17.8045 22.9137 17.3417 21.9823 16.6047 20.6575C15.9031 19.401 14.8506 17.3636 14.2189 16.3112C12.0796 12.6771 11.3753 12.1713 8.98983 12.1713H6.74741V18.2123C6.74741 22.8649 7.06245 23.2725 8.78173 23.3411L9.51876 23.375V23.558H0.782715V23.375L1.5194 23.3411C3.23868 23.2725 3.55407 22.8649 3.55407 18.2123V5.84997C3.55407 1.19735 3.23868 0.789493 1.5194 0.721571L0.782715 0.687281V0.461426H12.3422C16.5526 0.461426 20.0776 2.52149 20.0776 6.35938C20.0776 8.83851 18.2534 10.6727 15.8329 11.5217C14.1487 12.0991 12.4652 12.2013 10.4653 12.133C14.4297 13.1182 16.1837 14.3065 17.7627 16.6831C18.1836 17.329 19.2715 19.1286 19.6219 19.7069C20.9202 21.7782 21.9723 23.2725 23.2703 23.3411Z" fill="#1A1919"/>
<path fill-rule="evenodd" clip-rule="evenodd" d="M36.0389 15.5967L35.8281 14.8499C35.0216 11.9975 33.2011 11.8353 31.4825 11.8353H29.4785V18.2123C29.4785 22.7967 29.5841 23.3411 31.1273 23.3411H33.7583C37.1962 23.3411 39.1607 22.6948 40.9151 17.4645L41.301 16.3112H41.4069V23.558H23.5142V23.375L24.2515 23.3411C25.9701 23.2725 26.2862 22.8649 26.2862 18.2123L26.2855 5.84997C26.2855 1.19735 25.9701 0.789493 24.2508 0.721571L23.5142 0.687281V0.461426H40.709L40.7046 6.73295H40.5993L40.2135 5.57828C38.7397 1.19735 36.249 0.721571 33.0567 0.721571H31.1273C29.5838 0.721571 29.4785 1.26527 29.4785 5.84997V11.618H31.4825C33.2011 11.618 35.0216 11.4538 35.8281 8.60078L36.0389 7.85365H36.1441V15.5967H36.0389Z" fill="#1A1919"/>
<path fill-rule="evenodd" clip-rule="evenodd" d="M50.0351 18.2123C50.0351 22.7967 50.1403 23.3411 51.6839 23.3411H54.5962C58.1741 23.3411 60.5603 21.8461 60.5603 17.6007C60.5603 13.9666 58.5515 11.8353 54.4123 11.8353H50.0351V18.2123ZM50.0351 11.618H54.3762C57.0778 11.618 59.2619 9.9935 59.2619 6.05373C59.2619 2.31772 57.0519 0.721571 54.7011 0.721571H51.6839C50.1403 0.721571 50.0351 1.26527 50.0351 5.84997V11.618ZM44.0718 23.375L44.8081 23.3411C46.5274 23.2725 46.8428 22.8649 46.8428 18.2123V5.84997C46.8428 1.19735 46.5274 0.789493 44.8081 0.721571L44.0718 0.687281V0.461426H54.6936C59.2194 0.461426 62.8054 2.28376 62.8054 6.05373C62.8054 9.55201 58.9462 11.1142 55.4733 11.7252C58.9462 12.0991 64.103 13.3899 64.103 17.8384C64.103 21.8794 60.1001 23.558 54.5928 23.558H44.0718V23.375Z" fill="#1A1919"/>
<path fill-rule="evenodd" clip-rule="evenodd" d="M78.1937 15.5967L77.9835 14.8499C77.1763 11.9975 75.3603 11.8353 73.6397 11.8353H71.6333V18.2123C71.6333 22.7967 71.7389 23.3411 73.2814 23.3411H75.9138C79.3513 23.3411 81.3155 22.6948 83.0698 17.4645L83.4557 16.3112H83.562V23.558H65.6689V23.375L66.406 23.3411C68.1246 23.2725 68.4406 22.8649 68.4406 18.2123V5.84997C68.4406 1.19735 68.1246 0.789493 66.406 0.721571L65.6689 0.687281V0.461426H82.8577L82.86 6.73295H82.7548L82.3686 5.57828C80.8952 1.19735 78.4048 0.721571 75.2118 0.721571H73.2814C71.7389 0.721571 71.6333 1.26527 71.6333 5.84997V11.618H73.6397C75.3603 11.618 77.1763 11.4538 77.9835 8.60078L78.1937 7.85365H78.2993V15.5967H78.1937Z" fill="#1A1919"/>
<path fill-rule="evenodd" clip-rule="evenodd" d="M92.1902 18.2123C92.1902 22.7967 92.2955 23.3411 93.8397 23.3411H96.6471C100.084 23.3411 101.733 22.5923 103.803 16.4464L104.189 15.2914H104.294V23.558H86.2266V23.375L86.9633 23.3411C88.6818 23.2725 88.9986 22.8649 88.9986 18.2123V5.84997C88.9986 1.19735 88.6818 0.789493 86.9633 0.721571L86.2266 0.687281V0.461426H94.9664L94.9623 0.687281L94.2249 0.721571C92.507 0.789493 92.1902 1.19735 92.1902 5.84997V18.2123Z" fill="#1A1919"/>
<path fill-rule="evenodd" clip-rule="evenodd" d="M112.046 18.2123C112.046 22.7967 112.152 23.3411 113.695 23.3411H116.502C119.939 23.3411 121.588 22.5923 123.658 16.4464L124.045 15.2914H124.148V23.558H106.082V23.375L106.819 23.3411C108.538 23.2725 108.854 22.8649 108.854 18.2123V5.84997C108.854 1.19735 108.538 0.789493 106.819 0.721571L106.082 0.687281V0.461426H114.83L114.817 0.687281L114.08 0.721571C112.361 0.789493 112.046 1.19735 112.046 5.84997V18.2123Z" fill="#1A1919"/>
<path fill-rule="evenodd" clip-rule="evenodd" d="M138.461 15.5967L138.25 14.8499C137.443 11.9975 135.618 11.8353 133.898 11.8353H131.9V18.2123C131.9 22.7967 132.006 23.3411 133.549 23.3411H136.18C139.619 23.3411 141.583 22.6948 143.338 17.4645L143.723 16.3112H143.829V23.558H125.938V23.375L126.674 23.3411C128.393 23.2725 128.708 22.8649 128.708 18.2123V5.84997C128.708 1.19735 128.393 0.789493 126.674 0.721571L125.938 0.687281V0.461426H143.13L143.127 6.73295H143.022L142.636 5.57828C141.162 1.19735 138.671 0.721571 135.478 0.721571H133.549C132.006 0.721571 131.9 1.26527 131.9 5.84997V11.618H133.898C135.618 11.618 137.443 11.4538 138.25 8.60078L138.461 7.85365H138.567V15.5967H138.461Z" fill="#1A1919"/>
</g>
</svg>
