<svg width="53" height="24" viewBox="0 0 53 24" fill="none" xmlns="http://www.w3.org/2000/svg">
<path d="M52.3057 23.8715C52.2509 23.8672 52.1961 23.8594 52.1414 23.8594C50.7327 23.8588 49.324 23.8601 47.9155 23.8586C46.8869 23.8575 45.8584 23.8532 44.8298 23.8502H44.6947C44.8394 23.8006 44.9549 23.7698 45.0629 23.7222C45.4174 23.5666 45.5981 23.2878 45.623 22.9047C45.6262 22.8537 45.6247 22.8022 45.6247 22.7512C45.6247 20.5444 45.6181 18.3377 45.6296 16.1309C45.6323 15.6112 45.3564 15.3668 44.993 15.2413C44.8741 15.2001 44.7491 15.1764 44.6176 15.142H51.805V17.2248C51.6906 17.2675 51.6444 17.2218 51.6067 17.1109C51.3886 16.4708 51.0353 15.933 50.4326 15.5853C50.1286 15.41 49.8019 15.3231 49.4564 15.3193C48.7949 15.3118 48.1333 15.3171 47.4714 15.3174C47.4551 15.3174 47.4383 15.3201 47.4116 15.3227V19.0865C47.8851 19.0682 48.3646 19.148 48.8257 18.9683C49.2138 18.817 49.4777 18.5334 49.6385 18.1604C49.7441 17.9153 49.8124 17.6537 49.8963 17.3992C49.9093 17.3594 49.917 17.3177 49.9283 17.2732H50.0809V21.0706H49.9332C49.8635 20.8462 49.7981 20.6174 49.7212 20.3927C49.6145 20.0814 49.4518 19.8041 49.1948 19.5899C48.9824 19.413 48.7397 19.2969 48.4635 19.2864C48.1156 19.2733 47.7666 19.2832 47.4094 19.2832V23.6609C47.4265 23.6663 47.4457 23.6775 47.4649 23.6774C48.1479 23.6766 48.8311 23.6891 49.5134 23.6699C50.5847 23.6396 51.3177 23.0741 51.7937 22.1491C51.925 21.8934 52.0138 21.6141 52.1021 21.3393C52.139 21.2251 52.1745 21.1481 52.3055 21.1566V23.8714L52.3057 23.8715ZM0.131836 15.0861C0.426386 15.0847 0.720723 15.0821 1.01517 15.082C2.24032 15.0816 3.46548 15.0818 4.69043 15.0818H4.85745V15.2693C4.85745 17.6855 4.85531 20.1015 4.85937 22.5176C4.86011 22.9621 5.00365 23.3513 5.39692 23.6025C5.5237 23.6834 5.67301 23.7289 5.79926 23.7848H2.10543C2.19593 23.7554 2.28045 23.7336 2.36028 23.7008C2.7989 23.5197 2.99207 23.1616 3.04938 22.7158C3.072 22.5389 3.07606 22.3583 3.07638 22.1796C3.07808 19.9174 3.07744 17.655 3.07744 15.3924V15.282C2.34448 15.1881 1.67193 15.2977 1.08144 15.7646C0.598741 16.1463 0.261289 16.6147 0.147951 17.2291C0.145816 17.241 0.137279 17.252 0.131943 17.2634V15.0863L0.131836 15.0861ZM44.1608 0C44.1832 0.0096049 44.205 0.0213442 44.228 0.0284945C44.4929 0.108322 44.6912 0.265415 44.8353 0.505538C45.1469 1.02388 45.6005 1.35824 46.192 1.49185C46.716 1.61031 47.0308 2.04467 46.9854 2.58062C46.9337 3.18733 47.1064 3.72681 47.5115 4.18592C47.8628 4.58399 47.853 5.13734 47.5023 5.53445C47.1011 5.98876 46.9342 6.52888 46.9847 7.131C47.0306 7.67346 46.7094 8.10483 46.179 8.22233C45.6056 8.34932 45.1609 8.67589 44.8553 9.17321C44.5493 9.67138 44.0679 9.83296 43.5294 9.60938C42.9849 9.38334 42.4308 9.38399 41.887 9.61472C41.3715 9.83328 40.8689 9.66594 40.579 9.18442C40.2745 8.67856 39.8258 8.35199 39.2495 8.22233C38.7191 8.10323 38.3981 7.67431 38.4427 7.13164C38.493 6.52045 38.3207 5.97649 37.9096 5.51588C37.5823 5.14897 37.562 4.5984 37.8855 4.22797C38.3166 3.73438 38.4986 3.1693 38.4392 2.51755C38.3962 2.04691 38.7228 1.61213 39.1862 1.5069C39.8148 1.36454 40.2929 1.02004 40.6201 0.46317C40.7414 0.256451 40.9235 0.120595 41.1509 0.0450363C41.1901 0.0320163 41.2281 0.0151544 41.2666 0.000213442H41.6508C42.3594 0.350259 43.0681 0.351326 43.7767 0.000213442C43.9048 0 44.0328 0 44.1609 0H44.1608ZM38.7643 7.11968C38.7633 7.13249 38.7617 7.1453 38.7606 7.15789C38.7277 7.59054 38.8829 7.79822 39.299 7.90312C39.9799 8.07473 40.5097 8.46021 40.8774 9.05817C41.0831 9.3922 41.3645 9.48505 41.725 9.33617C42.3739 9.0683 43.0305 9.0666 43.6812 9.32636C44.0747 9.48345 44.3356 9.40159 44.558 9.04653C44.9407 8.43609 45.4873 8.04656 46.1922 7.88914C46.4917 7.82223 46.6975 7.56332 46.6762 7.25864C46.6687 7.15234 46.6495 7.04551 46.6549 6.93997C46.6858 6.30252 46.8875 5.73188 47.3215 5.25164C47.5275 5.02411 47.5257 4.68676 47.3226 4.45657C46.8178 3.88529 46.607 3.21988 46.6732 2.4628C46.7006 2.1484 46.5 1.88971 46.1913 1.82002C45.4723 1.65781 44.9191 1.25974 44.5382 0.629228C44.3543 0.325286 44.0519 0.226462 43.7266 0.363065C43.0528 0.645876 42.3745 0.645556 41.7007 0.363065C41.3796 0.228276 41.0742 0.324325 40.8966 0.619196C40.5142 1.25419 39.9604 1.65674 39.2363 1.82034C39.019 1.86943 38.8569 1.99174 38.7929 2.20134C38.7547 2.32673 38.762 2.46963 38.7667 2.60389C38.791 3.28584 38.5913 3.89148 38.1477 4.40961C37.8937 4.70587 37.8901 5.00212 38.1482 5.30126C38.5986 5.82334 38.785 6.4372 38.7647 7.11979L38.7643 7.11968ZM18.8726 13.6651H15.0965C15.121 13.6534 15.1422 13.6376 15.1656 13.6329C15.7633 13.5119 16.0407 13.023 16.0578 12.5283C16.0862 11.697 16.0806 10.8645 16.0872 10.0326C16.0875 9.99678 16.0744 9.95686 16.0562 9.92506C15.4594 8.88154 14.8701 7.83375 14.2599 6.79813C13.9784 6.32066 13.6486 5.8734 13.2607 5.47202C13.044 5.2479 12.8002 5.13446 12.4781 5.14332C11.8128 5.16146 11.1466 5.15079 10.4809 5.1526C10.4476 5.1526 10.4145 5.15762 10.3644 5.16167V5.3162C10.3644 7.60857 10.3612 9.90073 10.3688 12.1929C10.3697 12.4322 10.4058 12.6797 10.4745 12.9086C10.5884 13.2871 10.8674 13.5167 11.2474 13.6223C11.2879 13.6335 11.3282 13.646 11.3875 13.6635H7.61085C7.64351 13.6505 7.67029 13.6358 7.699 13.6288C8.20593 13.5085 8.47059 13.1642 8.55309 12.6729C8.59098 12.4474 8.59428 12.2143 8.59503 11.9846C8.60207 9.65837 8.60538 7.33217 8.60965 5.00607V4.85645H16.1546C16.0628 4.88558 16.0031 4.90277 15.9446 4.92368C15.5909 5.04929 15.475 5.30532 15.6476 5.63872C15.8197 5.97147 16.0177 6.2911 16.2047 6.61628C16.7428 7.55116 17.2818 8.48529 17.8167 9.42198C17.8504 9.48089 17.8666 9.55805 17.8669 9.62688C17.8701 10.5105 17.8604 11.3942 17.8747 12.2775C17.8785 12.5116 17.9242 12.7542 18.0007 12.9755C18.1178 13.3155 18.3823 13.521 18.7278 13.6199C18.7699 13.6319 18.8112 13.646 18.8726 13.6652V13.6651ZM7.00627 15.0732C7.13359 15.0732 7.26102 15.0738 7.38834 15.0732C8.37412 15.0676 9.3599 15.0606 10.3456 15.0569C10.8191 15.0547 11.2936 15.0398 11.7657 15.065C12.4242 15.1002 13.0567 15.2443 13.612 15.6306C14.5124 16.2576 14.5166 17.3157 14.2096 17.9003C13.9567 18.3816 13.5277 18.6586 13.0272 18.8177C12.7203 18.9152 12.3971 18.9611 12.0811 19.0297C12.0459 19.0373 12.0102 19.0419 11.9718 19.0794C11.9995 19.089 12.0268 19.1018 12.0554 19.1082C12.4466 19.1939 12.8437 19.2582 13.2279 19.3678C14.1009 19.6165 14.5446 20.1636 14.6281 21.0666C14.6775 21.6015 14.7106 22.1381 14.7583 22.6732C14.7711 22.8162 14.7978 22.9609 14.8399 23.098C14.9392 23.4205 15.1545 23.5871 15.4931 23.5854C15.6993 23.5843 15.9053 23.5434 16.1437 23.5167C16.0498 23.5823 15.979 23.6576 15.8926 23.6864C15.6834 23.7563 15.4702 23.825 15.2534 23.857C14.7219 23.9353 14.197 23.9029 13.7009 23.6716C13.2051 23.4405 12.9357 23.0419 12.8895 22.5026C12.8436 21.9675 12.8353 21.429 12.7785 20.8951C12.7472 20.6022 12.6814 20.3041 12.5755 20.0296C12.392 19.5537 12.0266 19.2698 11.5096 19.2356C11.1495 19.2121 10.7865 19.2311 10.4125 19.2311C10.4112 19.26 10.4075 19.3013 10.4075 19.3426C10.4072 20.401 10.4 21.4597 10.4105 22.5181C10.4155 23.024 10.5839 23.458 11.0755 23.6964C11.1742 23.7444 11.2826 23.7719 11.3879 23.8095H7.68257C7.79409 23.7657 7.92269 23.7303 8.03603 23.6675C8.40485 23.4637 8.56003 23.1225 8.60805 22.7225C8.62513 22.5791 8.63004 22.4333 8.63014 22.2886C8.63164 20.4491 8.62 18.6093 8.63548 16.7698C8.64423 15.7105 8.01468 15.2892 7.25365 15.1391C7.17148 15.1231 7.08824 15.113 7.00553 15.1001C7.00553 15.0908 7.00585 15.0819 7.00606 15.0734L7.00627 15.0732ZM10.4123 19.0301C10.651 19.0301 10.8767 19.0335 11.1022 19.0285C11.204 19.0263 11.3067 19.0135 11.4069 18.995C12.0065 18.8825 12.352 18.5513 12.4428 17.9677C12.5326 17.3905 12.5217 16.8106 12.3949 16.2388C12.285 15.7425 12.0103 15.3857 11.4867 15.2799C11.3043 15.2429 11.1154 15.2258 10.9288 15.2221C10.7572 15.2189 10.5848 15.2453 10.4123 15.2588V19.03V19.0301ZM21.2815 23.7989C21.5006 23.7071 21.718 23.6317 21.9208 23.5272C22.1918 23.3874 22.3207 23.1686 22.3181 22.8435C22.306 21.3838 22.3127 19.9242 22.3127 18.4645C22.3127 17.6278 22.3072 16.7911 22.3159 15.9549C22.3187 15.6836 22.2084 15.4864 21.9817 15.3677C21.7618 15.2527 21.5246 15.1718 21.309 15.0817C21.3297 15.0817 21.3739 15.0819 21.4179 15.0817C22.1948 15.0788 22.9715 15.0783 23.7481 15.0721C24.2258 15.0684 24.7036 15.0433 25.181 15.0506C25.8085 15.0602 26.4232 15.1558 26.9881 15.4497C27.4623 15.6966 27.8333 16.0449 27.9726 16.5827C28.1679 17.3375 27.9352 17.9601 27.2883 18.4309C26.8123 18.7774 26.2672 18.9512 25.6957 19.0568C25.6547 19.0642 25.6139 19.0733 25.57 19.1101C25.6148 19.1176 25.6592 19.1267 25.7041 19.132C26.2652 19.1986 26.8189 19.2942 27.3234 19.5678C27.9228 19.8929 28.3575 20.352 28.457 21.0539C28.6024 22.0812 28.2289 22.8131 27.2345 23.3479C26.5208 23.7318 25.7383 23.8258 24.9413 23.8229C23.7679 23.8189 22.5945 23.807 21.4212 23.7985L21.2816 23.7987L21.2815 23.7989ZM24.1053 19.1963C24.0987 19.2422 24.0941 19.2587 24.0941 19.2753C24.0936 20.6919 24.0941 22.1086 24.0915 23.5253C24.0913 23.6171 24.138 23.6341 24.2081 23.6348C24.5103 23.6377 24.8134 23.6548 25.1146 23.6378C25.7159 23.6039 26.13 23.2952 26.2981 22.7154C26.3896 22.3993 26.4388 22.0662 26.467 21.7373C26.5094 21.2392 26.5068 20.737 26.33 20.2588C26.1308 19.7201 25.7766 19.3298 25.1849 19.2463C24.8327 19.1967 24.4716 19.2113 24.1051 19.1966L24.1053 19.1963ZM24.0931 19.0572C24.46 19.0311 24.811 19.0321 25.1526 18.9761C25.6755 18.8902 26.013 18.5695 26.1099 18.0433C26.2278 17.4041 26.2164 16.761 26.0486 16.1298C25.9181 15.6387 25.5969 15.3301 25.086 15.2665C24.8094 15.2319 24.5264 15.2508 24.2463 15.243C24.1285 15.2396 24.0897 15.284 24.0902 15.408C24.0952 16.5676 24.0931 17.7275 24.0931 18.8874V19.0571V19.0572ZM31.6223 8.99381V13.3915H31.7668C32.3688 13.3915 32.9704 13.3888 33.5724 13.3921C34.6944 13.3985 35.4901 12.8679 35.9985 11.8937C36.1627 11.5791 36.2691 11.2342 36.4064 10.892H36.5332V13.5637H28.892C29.0085 13.5276 29.1364 13.4986 29.2557 13.4492C29.6271 13.2953 29.8208 13.0114 29.8448 12.6111C29.8477 12.5599 29.8469 12.5087 29.8469 12.4574V5.87596C29.8469 5.34715 29.6444 5.07694 29.1342 4.92795C29.0537 4.90447 28.9717 4.88558 28.8739 4.86019H36.0284V6.93196C35.9223 6.96665 35.8681 6.9437 35.8292 6.82972C35.6382 6.27008 35.3447 5.78108 34.8527 5.42581C34.4509 5.13585 34.0015 5.02592 33.517 5.02486C32.911 5.02347 32.3049 5.02454 31.6988 5.02486C31.6778 5.02486 31.6568 5.02806 31.6253 5.03083V8.80236C31.8932 8.80236 32.1606 8.81196 32.4271 8.79915C32.5961 8.79062 32.7676 8.76447 32.9304 8.7189C33.4216 8.58123 33.7212 8.23182 33.9053 7.77655C33.9926 7.56023 34.0585 7.33366 34.1151 7.10688C34.1437 6.99269 34.1848 6.95128 34.304 6.99482V10.7813H34.152C34.0903 10.5774 34.0324 10.3693 33.9638 10.1648C33.8425 9.80233 33.66 9.47982 33.3438 9.24749C33.146 9.10235 32.9243 9.00843 32.6827 8.99776C32.3341 8.98218 31.9839 8.99371 31.6224 8.99371L31.6223 8.99381ZM0.356697 13.6546V10.8778C0.462031 11.1147 0.548368 11.3257 0.648046 11.5298C0.900334 12.0458 1.1952 12.5326 1.62102 12.9289C2.06093 13.3387 2.57383 13.5699 3.1799 13.5593C3.4689 13.5543 3.76302 13.5523 4.04508 13.4983C4.93834 13.3275 5.54345 12.604 5.57248 11.6974C5.58774 11.2246 5.38358 10.8575 5.00312 10.5861C4.66545 10.3449 4.27934 10.2126 3.88756 10.0893C3.30273 9.90542 2.71299 9.73254 2.14054 9.51515C1.48357 9.26574 0.981763 8.82946 0.68828 8.16971C0.44709 7.62778 0.48615 7.09215 0.716241 6.57156C1.09788 5.70755 1.80544 5.22848 2.69549 4.99978C2.92857 4.94001 3.17552 4.91013 3.41639 4.90874C4.86299 4.90042 6.3096 4.90447 7.77915 4.90447C6.59081 5.17032 6.05752 5.94703 6.00416 7.1326C5.97428 7.08244 5.95806 7.05661 5.94333 7.03014C5.67909 6.55182 5.414 6.07446 5.00227 5.7004C4.15597 4.93094 3.03433 4.93692 2.24598 5.38877C1.85752 5.61118 1.57897 5.92985 1.48026 6.38107C1.37204 6.87572 1.53148 7.26504 1.95837 7.53366C2.37949 7.79896 2.85589 7.92031 3.33059 8.0425C3.9532 8.2028 4.58456 8.33449 5.16918 8.61559C5.65636 8.85006 6.09914 9.14386 6.3954 9.60959C6.83637 10.3027 6.81738 11.0336 6.52176 11.7675C6.09914 12.8162 5.27793 13.3969 4.20773 13.6469C3.42834 13.8289 2.6592 13.7463 1.90405 13.4863C1.6795 13.409 1.44536 13.354 1.21185 13.3087C0.874401 13.2433 0.572914 13.3025 0.356804 13.6547L0.356697 13.6546ZM35.2472 15.0883H38.1817C37.9489 15.1805 37.6714 15.264 37.4191 15.3957C36.8078 15.7148 36.4915 16.2188 36.496 16.925C36.5047 18.3077 36.5006 19.6905 36.4973 21.0733C36.4962 21.47 36.4658 21.863 36.3521 22.2489C36.1365 22.9799 35.6795 23.4768 34.9666 23.746C34.5244 23.9129 34.0665 23.968 33.5989 23.9701C33.0002 23.9729 32.404 23.9402 31.8268 23.7659C31.2619 23.5952 30.7541 23.3308 30.3882 22.8432C30.1121 22.475 29.9985 22.0506 29.9498 21.6053C29.9225 21.3557 29.9098 21.1035 29.9093 20.8522C29.9055 19.4097 29.9096 17.9671 29.9045 16.5247C29.9038 16.3475 29.8828 16.1654 29.8378 15.9943C29.7239 15.5619 29.4418 15.2787 29.0164 15.1392C28.9921 15.1312 28.9676 15.1238 28.9428 15.1171C28.9238 15.1118 28.9042 15.1083 28.8888 15.0876H32.6694L32.6715 15.1004C32.616 15.1168 32.5599 15.1306 32.5055 15.1501C32.0298 15.3211 31.7904 15.6795 31.7149 16.1616C31.6946 16.2916 31.6887 16.4249 31.6885 16.5565C31.6866 18.0036 31.6825 19.4503 31.6898 20.8971C31.6925 21.4381 31.7086 21.9813 31.8701 22.5057C32.0366 23.0457 32.3412 23.4755 32.8933 23.6687C33.1028 23.7421 33.333 23.7731 33.556 23.7872C33.9493 23.8124 34.3404 23.7729 34.7196 23.6563C35.577 23.3925 36.0557 22.794 36.2178 21.9303C36.2647 21.6802 36.289 21.4223 36.2903 21.168C36.2967 19.6744 36.2983 18.1805 36.2909 16.6868C36.288 16.1133 36.1045 15.6125 35.6039 15.2766C35.4963 15.2049 35.3744 15.1547 35.247 15.0881L35.2472 15.0883ZM20.3097 4.85602H24.1248C24.1274 4.86189 24.1301 4.86776 24.133 4.87353C24.0982 4.88825 24.0636 4.90341 24.0286 4.91792C23.7586 5.02848 23.5025 5.16061 23.295 5.37298C23.1477 5.52367 23.0683 5.69891 23.0683 5.91149C23.0691 8.36587 23.0688 10.8201 23.0691 13.2744C23.0691 13.3079 23.074 13.3413 23.0776 13.3914H23.2193C23.8255 13.3914 24.4317 13.4008 25.0377 13.3892C26.0048 13.3706 26.7937 13.0045 27.3201 12.163C27.4463 11.9613 27.5613 11.7506 27.6612 11.5346C27.7586 11.3233 27.8301 11.1003 27.9171 10.8715V13.5619H20.2885C20.4223 13.5117 20.5823 13.4662 20.729 13.3938C21.0883 13.2167 21.2869 12.9274 21.2886 12.519C21.2965 10.701 21.3042 8.88325 21.3091 7.06526C21.3102 6.70283 21.286 6.33998 21.2953 5.97777C21.3126 5.30415 20.8951 5.02283 20.423 4.89839C20.3839 4.88804 20.3449 4.87705 20.3056 4.86659L20.3099 4.85592L20.3097 4.85602ZM44.0829 15.0897V17.26C43.3945 15.3127 42.1911 15.2148 41.1427 15.2765V22.5967C41.1427 23.1634 41.4618 23.5877 42.0093 23.7499C42.0368 23.758 42.0634 23.7691 42.1149 23.7877H38.3818C38.4219 23.7721 38.4437 23.7612 38.4667 23.7552C38.9922 23.6173 39.2503 23.2491 39.3162 22.736C39.3491 22.4791 39.3471 22.2169 39.3485 21.9569C39.3543 20.7917 39.3575 19.6265 39.3576 18.4614C39.3576 17.3818 39.3526 16.3021 39.3501 15.2224C39.3501 15.1805 39.3535 15.1389 39.3558 15.0897H44.0831H44.0829ZM16.5811 15.0874H20.4213L20.4253 15.1012C20.3561 15.1211 20.2847 15.135 20.2184 15.1619C20.061 15.2259 19.8991 15.2832 19.7521 15.3661C19.5073 15.5041 19.3892 15.7151 19.3898 16.0082C19.3951 18.2489 19.3954 20.4896 19.3904 22.7303C19.3893 23.1954 19.4194 23.4077 20.0423 23.6641C20.1633 23.7141 20.2926 23.7433 20.4416 23.7894H16.5391C16.6466 23.7521 16.7309 23.7296 16.8096 23.6944C16.9608 23.6267 17.1152 23.5624 17.2569 23.4776C17.4999 23.3322 17.6253 23.1241 17.6245 22.824C17.6181 20.5707 17.6156 18.3172 17.6256 16.064C17.6277 15.6414 17.4331 15.3908 17.0653 15.2444C16.9135 15.184 16.7536 15.1428 16.581 15.0875L16.5811 15.0874ZM46.4966 2.40464C46.4278 3.11007 46.5894 3.7124 46.9409 4.26628C47.0045 4.36639 47.0821 4.45891 47.161 4.54803C47.3371 4.74653 47.3365 4.95549 47.1653 5.15495C46.6639 5.73903 46.4353 6.41618 46.491 7.18521C46.5139 7.50143 46.4062 7.64561 46.0983 7.72383C45.3575 7.91187 44.7814 8.32947 44.3822 8.98378C44.2369 9.2222 44.0473 9.27972 43.7852 9.1731C43.0723 8.88336 42.3562 8.88336 41.6433 9.17257C41.3757 9.28121 41.1911 9.2206 41.0393 8.97407C40.6355 8.31731 40.0534 7.90078 39.3059 7.71796C39.037 7.65222 38.914 7.50079 38.9356 7.22523C38.9979 6.43229 38.7695 5.73647 38.2465 5.13702C38.091 4.9588 38.0955 4.74055 38.2579 4.55827C38.7279 4.03107 38.9365 3.40547 38.9514 2.70826C38.9535 2.61061 38.9352 2.51275 38.9336 2.41478C38.9304 2.20945 39.0617 2.04478 39.2617 1.99963C40.0525 1.82141 40.6539 1.38332 41.0678 0.68611C41.179 0.498814 41.3993 0.432327 41.6025 0.518344C42.3429 0.832104 43.0838 0.831784 43.8242 0.518664C44.034 0.430086 44.2474 0.500842 44.3651 0.696889C44.7797 1.38684 45.3787 1.82237 46.1649 1.99953C46.3781 2.04755 46.5048 2.22332 46.4964 2.40453L46.4966 2.40464ZM44.46 7.59374C44.3704 7.52907 44.2643 7.47293 44.1858 7.39065C44.0583 7.25746 44.0306 7.08094 44.0305 6.90251C44.0296 5.70776 44.0299 4.51302 44.0305 3.31807C44.0305 3.29 44.0371 3.26193 44.0409 3.23119C44.6862 3.18029 45.1773 3.4282 45.5334 3.94324V3.13813H43.1109V3.30163C43.1109 4.47097 43.108 5.64021 43.1125 6.80955C43.1139 7.166 43.0298 7.46076 42.6529 7.59395C43.2586 7.59374 43.8644 7.59374 44.4599 7.59374H44.46ZM42.6889 3.13333H41.8285C41.5553 3.13333 41.2823 3.1328 41.0092 3.13354C40.7588 3.13429 40.5297 3.20291 40.3275 3.35286C39.8187 3.73001 39.8675 4.40086 40.4292 4.69007C40.5682 4.7619 40.7208 4.80789 40.8691 4.86083C41.0534 4.92657 41.2447 4.9747 41.423 5.05356C41.6097 5.13638 41.7293 5.28269 41.7197 5.50414C41.7076 5.78482 41.5292 6.03134 41.2554 6.09612C40.8087 6.20178 40.4813 6.12494 40.2163 5.75248C40.1256 5.62506 40.0589 5.48034 39.9815 5.34342C39.9644 5.31279 39.9481 5.28152 39.9201 5.22987V6.16047C40.0258 6.03828 40.1432 6.03028 40.27 6.06699C40.3722 6.09655 40.4738 6.12942 40.5773 6.15396C41.061 6.26869 41.502 6.20199 41.8624 5.83113C42.2952 5.38611 42.2068 4.7572 41.6639 4.46436C41.5086 4.38058 41.3317 4.33554 41.1629 4.27781C40.942 4.20225 40.7115 4.14868 40.4995 4.05412C40.3031 3.96661 40.2407 3.75914 40.3443 3.56875C40.4004 3.46577 40.4924 3.3662 40.5928 3.30654C40.945 3.09737 41.3935 3.20878 41.6472 3.55541C41.7265 3.66363 41.7945 3.77995 41.876 3.90514C41.9159 3.41572 42.2356 3.22746 42.6888 3.13354L42.6889 3.13333Z" fill="black"/>
</svg>
