<svg width="201" height="24" viewBox="0 0 201 24" fill="none" xmlns="http://www.w3.org/2000/svg">
<path d="M190.771 4.04063H190.906C191.219 5.52188 191.355 6.19688 191.672 7.27188L193.516 14.5469H188.117L189.961 7.27188C190.231 6.19688 190.411 5.52188 190.769 4.04063H190.771ZM195.671 23.1234H200.755L194.371 0.445313H187.442L181.011 23.125H185.824L187.261 18.05H194.233L195.671 23.1234ZM169.991 23.4359C172.78 23.4359 175.478 22.7641 177.235 22.0453V10.6875H169.406V14.3234H172.602V19.3953C172.016 19.7547 171.024 19.9813 169.949 19.9813C166.621 19.9813 165.585 18.3203 165.585 13.5172V10.5937C165.585 5.83594 166.572 3.5 169.631 3.5C171.746 3.5 172.469 4.9375 172.516 6.46563H177.328C177.275 2.46875 174.4 0 169.63 0C162.971 0 160.546 3.85938 160.546 10.1047V13.4281C160.499 20.2063 162.796 23.4375 169.989 23.4375L169.991 23.4359ZM147.461 4.04063H147.599C147.911 5.52188 148.049 6.19688 148.361 7.27188L150.208 14.5469H144.81L146.653 7.27188C146.922 6.19688 147.102 5.52188 147.461 4.04063ZM152.364 23.125H157.442L151.061 0.445313H144.13L137.705 23.125H142.517L143.955 18.05H150.924L152.364 23.1234V23.125ZM128.075 23.125H132.888V0.445313H128.075V23.125ZM114.853 23.4375C120.203 23.4375 122.813 20.9656 122.947 16.3469H118.092C118.002 18.5906 117.28 19.9813 114.989 19.9813C112.383 19.9813 111.396 18.1422 111.396 13.4281V10.1047C111.396 5.34375 112.383 3.55 114.989 3.55C117.421 3.55 117.824 5.16719 117.911 6.87344H122.767C122.721 2.92187 120.474 0.09375 114.855 0.09375C108.602 0.09375 106.311 4 106.311 10.1047V13.4281C106.311 19.5781 108.6 23.4375 114.853 23.4375ZM82.2908 23.125H86.5658V9.96875C86.5658 8.12812 86.4721 5.88281 86.3814 4.04063H86.5221C87.194 6.375 87.5533 7.5875 88.183 9.3375L93.1768 23.125H100.192V0.445313H95.919V13.0672C95.919 14.7234 95.9658 16.9266 96.0096 19.0359H95.8752C95.5158 17.4625 95.1971 15.8906 94.2533 13.3328L89.5768 0.446875H82.2486V23.125H82.2908ZM62.6814 23.125H75.7689V19.4844H67.4939V13.1984H75.0018V9.52031H67.4924V4.04063H75.4533V0.403125H62.6768V23.1219L62.6814 23.125ZM45.0986 23.125H57.6924V19.4844H49.9111V0.446875H45.0986V23.125ZM30.1674 4.03906H30.3033C30.6158 5.52031 30.7564 6.19531 31.0689 7.27031L32.9127 14.5453H27.5174L29.3611 7.27031C29.6299 6.19531 29.8111 5.52031 30.1689 4.03906H30.1674ZM35.0705 23.125H40.1533L33.7658 0.445313H26.8408L20.408 23.125H25.2205L26.658 18.05H33.6314L35.0721 23.1234L35.0705 23.125ZM5.61113 19.6656V13.0688H8.53613C11.0096 13.0688 12.1768 14.1906 12.1768 16.3875C12.1768 18.8094 10.6486 19.7125 8.44551 19.7125H5.61113V19.6656ZM5.61113 9.60781V3.90625H8.62676C10.8268 3.90625 11.7721 4.89063 11.7721 6.73438C11.7721 8.57813 10.6986 9.60938 8.67207 9.60938H5.61113V9.60781ZM0.798633 23.125H9.29863C14.0643 23.125 16.9861 21.4141 16.9861 16.7031C16.9861 13.6938 15.2361 11.6313 11.9955 11.3125V11.1813C14.8705 10.6875 16.583 9.11563 16.583 6.10781C16.583 2.19844 14.333 0.448438 9.52363 0.448438H0.754883V23.125H0.798633Z" fill="black"/>
</svg>
