<svg width="268" height="24" viewBox="0 0 268 24" fill="none" xmlns="http://www.w3.org/2000/svg">
<g clip-path="url(#clip0_332_11191)">
<path fill-rule="evenodd" clip-rule="evenodd" d="M267.64 3.97686V0.322456H251.738V3.97686H257.761V22.8222H261.583V3.97686H267.64ZM231.151 19.1678V12.8263H237.388V9.17188H231.151V3.97686H240.31V0.322456H227.329V22.8222H240.31V19.1678H231.151ZM213.519 23.1447V0.322456H209.698V14.761L193.688 0V22.8222H197.51V8.38367L213.519 23.1447ZM181.394 3.97686V0.322456H165.492V3.97686H171.513V22.8222H175.336V3.97686H181.394ZM138.629 13.0413V0.322456H134.807V13.1846C134.807 19.4186 138.81 23.1447 144.363 23.1447C149.915 23.1447 153.918 19.4186 153.918 13.1846V0.322456H150.096V13.0413C150.096 17.0181 148.004 19.4903 144.363 19.4903C140.721 19.4903 138.629 17.0181 138.629 13.0413ZM110.974 3.65443C115.481 3.65443 118.907 7.1297 118.907 11.5723C118.907 16.015 115.481 19.4903 110.974 19.4903C106.467 19.4903 103.042 16.015 103.042 11.5723C103.042 7.1297 106.467 3.65443 110.974 3.65443ZM110.974 23.1447C117.573 23.1447 122.729 18.093 122.729 11.5723C122.729 5.0517 117.573 0 110.974 0C104.376 0 99.2197 5.0517 99.2197 11.5723C99.2197 18.093 104.376 23.1447 110.974 23.1447ZM65.7674 19.1678V12.8263H72.0054V9.17188H65.7674V3.97686H74.926V0.322456H61.9455V22.8222H74.926V19.1678H65.7674ZM44.3142 22.8222H48.1363V0.322456H44.3142V9.17188H32.9924V0.322456H29.1703V22.8222H32.9924V12.8263H44.3142V22.8222ZM16.8748 3.97686V0.322456H0.973633V3.97686H6.99517V22.8222H10.8172V3.97686H16.8748Z" fill="black"/>
</g>
<defs>
<clipPath id="clip0_332_11191">
<rect width="266.667" height="24" fill="white" transform="translate(0.973633)"/>
</clipPath>
</defs>
</svg>
