<svg width="158" height="22" viewBox="0 0 158 22" fill="none" xmlns="http://www.w3.org/2000/svg">
<g clip-path="url(#clip0_332_11187)">
<path d="M34.5883 0.486816C40.3428 0.486816 43.2201 3.80674 43.2201 8.23329C43.2201 10.5572 42.2241 12.4385 40.4535 13.7665C41.8921 13.9878 42.9987 14.9838 42.9987 16.4224V21.513H38.1295V16.4224C38.1295 15.7584 37.5762 15.3158 36.6909 15.3158H36.1376C36.1376 15.3158 36.0269 15.3158 35.9162 15.3158H35.4736C35.3629 15.3158 35.3629 15.3158 35.2523 15.3158H34.8096C34.6989 15.3158 34.5883 15.3158 34.5883 15.3158H34.035C33.1496 15.3158 32.2643 15.3158 31.379 15.3158H30.8257C30.6044 15.3158 30.2724 15.3158 30.0511 15.3158H29.6084C29.4977 15.3158 29.4977 15.3158 29.3871 15.3158H28.9444H28.8337H28.7231V21.513H23.8539V0.486816H34.5883ZM125.111 0.486816C130.866 0.486816 133.743 3.80674 133.743 8.23329C133.743 10.5572 132.747 12.4385 130.977 13.7665C132.415 13.9878 133.522 14.9838 133.522 16.4224V21.513H128.653V16.4224C128.653 15.7584 128.099 15.3158 127.214 15.3158H126.661C126.661 15.3158 126.55 15.3158 126.439 15.3158H125.997C125.886 15.3158 125.886 15.3158 125.775 15.3158H125.333C125.222 15.3158 125.111 15.3158 125.111 15.3158H124.558C123.673 15.3158 122.787 15.3158 121.902 15.3158H121.349C121.128 15.3158 120.796 15.3158 120.574 15.3158H120.132C120.021 15.3158 120.021 15.3158 119.91 15.3158H119.468H119.357H119.246V21.513H114.377V0.486816H125.111ZM21.6406 0.486816V5.24537H13.6728V21.513H8.6929V5.24537H0.725098V0.486816L21.6406 0.486816ZM110.836 0.486816V5.24537H97.8881V8.56529H108.733V12.9918H97.8881V16.8651H110.836V21.513H93.0189V0.486816H110.836ZM78.4112 0.486816C86.2684 0.486816 90.2523 3.9174 90.2523 10.8892C90.2523 17.4184 86.047 21.513 78.3006 21.513H69.8901V0.486816H78.4112ZM151.117 0.486816L157.868 21.513H152.888L151.339 16.7544H141.822L140.272 21.513H135.293L142.043 0.486816H151.117ZM60.9263 0.486816L67.6768 21.513H62.6969L61.1476 16.7544H51.6305L50.0812 21.513H45.1014L51.8519 0.486816H60.9263ZM78.3006 5.24537H74.7593V16.8651H78.3006C83.1698 16.8651 85.383 15.0945 85.383 10.9999C85.383 7.01599 83.1698 5.24537 78.3006 5.24537ZM147.687 5.24537H145.584L143.26 12.4385H149.9L147.687 5.24537ZM57.3851 5.24537H55.2824L52.9585 12.4385H59.5983L57.3851 5.24537ZM34.5883 5.24537H28.7231V11.2212H34.5883C37.1335 11.2212 38.2402 10.1146 38.2402 8.23329C38.2402 6.02002 37.0229 5.24537 34.5883 5.24537V5.24537ZM125.111 5.24537H119.246V11.2212H125.111C127.657 11.2212 128.763 10.1146 128.763 8.23329C128.763 6.02002 127.546 5.24537 125.111 5.24537V5.24537ZM156.097 0.486816L156.54 1.59346L156.983 0.486816H157.757V2.92142H157.204V1.04014L156.761 2.25744H156.319L155.765 0.929472V2.81076H155.323V0.486816L156.097 0.486816ZM154.991 0.486816V0.929472H154.216V2.81076H153.663V0.929472H152.888V0.486816L154.991 0.486816Z" fill="black"/>
</g>
<defs>
<clipPath id="clip0_332_11187">
<rect width="157.143" height="22" fill="white" transform="translate(0.725098)"/>
</clipPath>
</defs>
</svg>
