<svg width="65" height="24" viewBox="0 0 65 24" fill="none" xmlns="http://www.w3.org/2000/svg">
<g clip-path="url(#clip0_1439_1293)">
<path d="M61.2331 16.7929C61.3654 16.6594 61.5416 16.5704 61.7178 16.5704C62.3348 16.5704 62.6427 17.6381 62.6427 18.7058C62.4671 18.7503 61.894 18.8393 60.5723 18.8838C60.6162 18.1275 60.793 17.2822 61.2337 16.7929H61.2331ZM64.8021 21.4641C64.3613 21.8645 63.7889 22.1759 62.9957 22.1759C61.4538 22.1759 60.5723 21.1082 60.5723 19.1062H64.7137C64.7576 19.0172 64.7576 18.8838 64.7576 18.6169C64.7576 17.3267 63.745 16.259 61.8501 16.259C59.8675 16.259 58.1933 17.9051 58.1933 20.2629C58.1933 22.2204 59.4712 23.8219 61.4977 23.8219C63.128 23.8219 64.1851 22.8877 64.846 21.5086L64.8021 21.4641ZM59.0304 16.6149V16.5704H56.2991V16.6149L56.6515 16.8373C57.0039 17.0153 57.224 17.2377 57.224 17.4157C57.224 17.6826 56.8716 18.8393 56.6515 19.5066L56.0784 21.1082H56.0345L54.7128 17.5047C54.625 17.3267 54.625 17.1043 54.625 17.0598C54.625 16.9263 54.7128 16.8818 55.0651 16.7929L55.4614 16.7039V16.5704H50.9676V16.7039L51.2322 16.7929C51.6285 16.8818 51.7169 16.9263 51.937 17.4602L54.6689 23.6885H55.3297L57.7531 18.0385C58.0611 17.3267 58.2372 17.1932 58.6341 16.8818L59.0304 16.6149ZM50.1305 23.0656V17.5936C50.1305 17.4602 50.1305 16.7929 50.175 16.2145L50.1305 16.17L46.9584 17.2377V17.2822L47.3992 17.8161C47.5315 17.994 47.5315 18.1275 47.5315 18.3944V23.1101C47.5315 23.3326 47.4876 23.3771 47.1346 23.466L46.9145 23.5105V23.644H50.7914V23.5105L50.5713 23.466C50.1305 23.3326 50.1305 23.2881 50.1305 23.0656ZM48.8088 15.6807C49.6458 15.6807 50.2628 15.0578 50.2628 14.346C50.2628 13.6342 49.6903 13.0559 48.9411 13.0559C48.0601 13.0559 47.3992 13.7232 47.3992 14.3905C47.3992 15.1023 48.0601 15.6807 48.8088 15.6807ZM45.505 22.3538C45.1965 22.3538 44.888 22.3093 44.7118 22.1314C44.5356 21.9534 44.4472 21.6865 44.4472 21.2861V17.7271H46.4298L46.606 16.5704H44.4472L44.4917 14.7019H44.4472C43.3326 15.7054 42.1711 16.6556 40.9666 17.5491V17.7271H41.8482V21.6865C41.8482 22.4428 41.9799 22.9322 42.3768 23.3326C42.7291 23.6885 43.2577 23.8664 44.007 23.8664C45.3727 23.8664 46.2536 23.0656 46.7822 22.0424L46.7383 21.9979C46.342 22.2204 45.9012 22.3538 45.505 22.3538ZM37.6622 16.6149C37.7945 16.6149 37.8384 16.6594 37.9268 16.8373L38.8962 18.6169C39.1163 19.0172 39.2486 19.0617 39.4687 19.0617C39.9972 19.0617 40.6581 18.6169 40.6581 17.8606C40.6581 16.9263 39.601 16.3035 38.1469 16.3035C35.7235 16.3035 34.2261 18.172 34.2261 20.2629C34.2261 22.1759 35.4595 23.8219 37.5744 23.8219C38.9401 23.8219 39.9978 23.1101 40.6142 21.82L40.5703 21.7755C40.174 22.1759 39.6893 22.3983 39.0285 22.3983C37.5299 22.3983 36.5611 21.1082 36.5611 19.2397C36.5172 17.5491 37.1781 16.6149 37.6622 16.6149ZM29.9085 16.7929C30.0408 16.6594 30.217 16.5704 30.3931 16.5704C31.0095 16.5704 31.318 17.6381 31.318 18.7058C31.1424 18.7503 30.5688 18.8393 29.2476 18.8838C29.2915 18.1275 29.4677 17.2822 29.9085 16.7929ZM33.4769 21.4641C33.0367 21.8645 32.4642 22.1759 31.6704 22.1759C30.1286 22.1759 29.247 21.1082 29.247 19.1062H33.3891C33.433 19.0172 33.433 18.8838 33.433 18.6169C33.433 17.3267 32.4197 16.259 30.5249 16.259C28.5428 16.259 26.8681 17.9051 26.8681 20.2629C26.8681 22.2204 28.1459 23.8219 30.1725 23.8219C31.8027 23.8219 32.8605 22.8877 33.5208 21.5086L33.4769 21.4641ZM25.9871 23.0656V14.2571C25.9871 14.1236 25.9871 13.4563 26.031 12.8779H25.9871L22.815 13.9011V13.9456L23.2558 14.4795C23.3881 14.6574 23.3881 14.7909 23.3881 15.0578V23.0656C23.3881 23.2881 23.3436 23.3326 22.9912 23.4215L22.7711 23.466V23.5995H26.648V23.466L26.4279 23.4215C26.031 23.3326 25.9871 23.2881 25.9871 23.0656ZM21.67 23.0656V14.2571C21.67 14.1236 21.67 13.4563 21.7133 12.8779L18.5412 13.9011V13.9456L18.982 14.4795C19.1143 14.6574 19.1143 14.7909 19.1143 15.0578V23.0656C19.1143 23.2881 19.0704 23.3326 18.7174 23.4215L18.4973 23.466V23.5995H22.3742V23.466L22.1541 23.4215C21.7578 23.3326 21.6694 23.2881 21.6694 23.0656H21.67ZM15.2369 23.0656C15.1491 23.2881 14.9729 23.555 14.6205 23.555C13.8273 23.555 13.3865 21.731 13.3865 19.818C13.3865 18.8838 13.431 17.7716 13.7834 17.1043C13.8712 16.8818 14.0474 16.6149 14.3998 16.6149C15.193 16.6149 15.6337 18.4389 15.6337 20.3519C15.6337 21.2861 15.5459 22.3983 15.2374 23.0656H15.2369ZM14.576 16.3035C13.3865 16.3035 12.4616 16.7039 11.7124 17.4602C11.1399 18.0385 10.6552 19.0172 10.6552 20.1294C10.6552 22.0424 12.0209 23.8219 14.3998 23.8219C15.5898 23.8219 16.5147 23.4215 17.264 22.6652C17.8365 22.0869 18.3211 21.1082 18.3211 19.996C18.3211 18.1275 16.9555 16.3035 14.5766 16.3035H14.576ZM7.6593 22.7097C7.08681 23.2881 6.60212 23.555 6.07295 23.555C4.48661 23.555 3.47393 21.2416 3.47393 18.3054C3.47393 14.9689 4.61949 13.5008 5.94125 13.5008C6.51373 13.5008 6.91003 13.6787 7.4831 14.2571C8.10008 14.8799 8.67256 15.8141 9.42183 17.1488H9.55354C9.50964 16.1255 9.37793 14.3015 9.28954 13.2783H9.20173L9.06886 13.4563C8.98105 13.5897 8.93715 13.6342 8.80486 13.6342C8.54027 13.6342 7.13071 13.2338 6.07295 13.2338C2.46066 13.2338 0.478027 15.6362 0.478027 18.6613C0.478027 21.9979 2.72466 23.8664 5.94125 23.8664C6.77832 23.8664 8.14398 23.5995 9.46515 22.9767C9.55354 22.7987 9.86203 20.6188 9.90593 19.5511L9.81812 19.5066C8.98105 21.0192 8.27627 22.0869 7.6593 22.7097Z" fill="#010202"/>
<path d="M57.8732 3.73698C58.0049 3.60351 58.1811 3.51454 58.3573 3.51454C58.9742 3.51454 59.2821 4.58224 59.2821 5.64995C59.1065 5.69444 58.5335 5.78341 57.2117 5.8279C57.2556 5.07161 57.4318 4.22634 57.8732 3.73698ZM61.4416 8.40819C61.0008 8.80859 60.4277 9.12 59.6351 9.12C58.0927 9.12 57.2117 8.05229 57.2117 6.05034H61.3532C61.3971 5.96137 61.3971 5.8279 61.3971 5.56098C61.3971 4.27083 60.3844 3.20312 58.4895 3.20312C56.5069 3.20312 54.8328 4.84917 54.8328 7.20702C54.8328 9.16449 56.1106 10.766 58.1372 10.766C59.7674 10.766 60.824 9.8318 61.4855 8.45268L61.4416 8.40819ZM52.5416 5.38302C52.8501 5.38302 53.4665 5.56098 54.128 5.91688C54.5243 5.472 54.7889 4.89366 54.7889 4.22634C54.7889 3.648 54.4804 3.15863 53.8195 3.15863C53.0263 3.15863 52.1893 4.09288 51.793 5.56098L51.7046 5.51649L51.7485 4.27083C51.7485 4.0039 51.793 3.69249 51.8363 3.06966L51.793 3.02517L48.5764 4.09288V4.13737L49.0172 4.67122C49.1495 4.80468 49.1495 4.98263 49.1495 5.24956V9.96527C49.1495 10.1877 49.105 10.2322 48.7526 10.3212L48.5325 10.3657V10.4991H52.7178V10.3657L52.2332 10.3212C51.8369 10.2767 51.793 10.2322 51.793 9.96527V6.05034C51.9247 5.69444 52.1454 5.38302 52.5416 5.38302ZM47.607 10.0098V4.53776C47.607 4.40429 47.607 3.73698 47.6515 3.15863H47.607L44.4349 4.18185V4.22634L44.8757 4.76019C45.008 4.93815 45.008 5.07161 45.008 5.33854V10.0542C45.008 10.2767 44.9635 10.3212 44.6111 10.4101L44.391 10.4546V10.5881H48.2679V10.4546L48.0478 10.4101C47.6515 10.2767 47.607 10.2322 47.607 10.0098ZM46.2853 2.62478C47.1223 2.62478 47.7393 2.00195 47.7393 1.29015C47.7393 0.578341 47.1668 0 46.4176 0C45.5366 0 44.8757 0.667317 44.8757 1.33463C44.8757 2.04644 45.5366 2.62478 46.2853 2.62478ZM40.6903 9.52039C40.558 9.60937 40.4696 9.65385 40.2496 9.65385C39.8533 9.65385 39.5003 9.25346 39.5003 8.54166C39.5003 8.14127 39.5887 7.87434 39.8088 7.6519C40.0295 7.42946 40.2056 7.34049 40.6458 7.07356V9.52039H40.6903ZM44.3026 9.60937C44.0825 9.74283 43.9502 9.78732 43.8185 9.78732C43.6862 9.78732 43.5539 9.74283 43.4216 9.65385C43.2894 9.52039 43.2016 9.34244 43.2016 8.85307V5.38302C43.2016 4.67122 43.1137 4.13737 42.7169 3.73698C42.3645 3.38107 41.792 3.20312 41.0427 3.20312C39.8088 3.20312 38.3992 4.13737 37.6944 4.84917C37.2975 5.24956 37.1214 5.56098 37.1214 5.8279C37.1214 6.1838 37.3859 6.40624 38.0029 6.40624C38.4876 6.40624 39.1924 6.22829 39.5009 6.05034L39.0601 4.49327C39.2363 4.31532 39.4125 4.27083 39.6771 4.27083C39.9411 4.27083 40.2056 4.31532 40.3379 4.49327C40.558 4.67122 40.6458 5.16059 40.6458 6.13932V6.89561L39.4125 7.296C38.1346 7.74088 37.6944 7.91883 37.3859 8.27473C37.1658 8.49717 37.0336 8.80858 37.0336 9.12C37.0336 9.92078 37.606 10.6771 38.6199 10.6771C39.3247 10.6771 39.7649 10.4101 40.4257 9.8318L40.6458 9.65385H40.6903C40.9543 10.3212 41.5274 10.7216 42.3206 10.7216C43.3333 10.7216 44.0825 10.0098 44.3471 9.60937H44.3026ZM36.0203 10.0098V4.53776C36.0203 4.40429 36.0203 3.73698 36.0642 3.15863L36.0203 3.11415L32.8476 4.13737V4.18185L33.2884 4.71571C33.4207 4.89366 33.4207 5.02712 33.4207 5.29405V10.0098C33.4207 10.2322 33.3768 10.2767 33.0244 10.3657L32.8037 10.4101V10.5436H36.7251V10.4101L36.505 10.3657C36.0203 10.2767 36.0203 10.2322 36.0203 10.0098ZM34.6985 2.62478C35.5356 2.62478 36.152 2.00195 36.152 1.29015C36.152 0.578341 35.5795 0 34.8308 0C33.9493 0 33.2884 0.667317 33.2884 1.33463C33.2884 2.04644 33.9498 2.62478 34.6985 2.62478ZM31.3941 9.29795C31.0856 9.29795 30.7772 9.25346 30.601 9.07551C30.4248 8.89756 30.3364 8.63063 30.3364 8.23024V4.67122H32.319L32.4952 3.51454H30.3364L30.4248 1.60156H30.3809C29.2663 2.60507 28.1048 3.55521 26.9003 4.44878V4.62673H27.7813V8.58615C27.7813 9.34244 27.9136 9.8318 28.3098 10.2322C28.6622 10.5881 29.1914 10.766 29.9401 10.766C31.3057 10.766 32.1873 9.96527 32.7159 8.94205L32.672 8.89756C32.2312 9.16449 31.7904 9.29795 31.3941 9.29795ZM24.1684 5.69444C23.4636 5.29405 23.0228 4.93815 23.0228 4.3598C23.0228 3.95941 23.2874 3.60351 23.816 3.60351C24.3446 3.60351 24.7854 3.87044 26.1516 5.78341L26.2394 5.73893C26.2394 5.29405 26.1955 4.0039 26.1516 3.69249C25.6663 3.51454 24.8737 3.24761 23.9038 3.24761C22.2296 3.24761 21.0847 4.22634 21.0847 5.472C21.0847 6.85112 22.1418 7.38498 23.2435 8.05229C24.1684 8.63063 24.6531 9.03102 24.6531 9.60937C24.6531 10.0542 24.3891 10.4101 23.8605 10.4101C23.1551 10.4101 22.4064 9.65385 20.9963 7.78537L20.9085 7.82985C20.9085 8.54166 21.0408 9.69834 21.1286 10.2767C21.79 10.5436 22.7149 10.7216 23.552 10.7216C25.3584 10.7216 26.5918 9.8318 26.5918 8.31922C26.5918 7.07356 25.4901 6.40624 24.1684 5.69444ZM16.5908 3.73698C16.7231 3.60351 16.8993 3.51454 17.0755 3.51454C17.6919 3.51454 18.0004 4.58224 18.0004 5.64995C17.8248 5.69444 17.2511 5.78341 15.9299 5.8279C15.9738 5.07161 16.15 4.22634 16.5908 3.73698ZM20.1592 8.40819C19.719 8.80859 19.1465 9.12 18.3528 9.12C16.8109 9.12 15.9294 8.05229 15.9294 6.05034H20.0714C20.1153 5.96137 20.1153 5.8279 20.1153 5.56098C20.1153 4.27083 19.102 3.20312 17.2078 3.20312C15.2252 3.20312 13.551 4.84917 13.551 7.20702C13.551 9.16449 14.8283 10.766 16.8548 10.766C18.4851 10.766 19.5428 9.8318 20.2031 8.45268L20.1592 8.40819ZM14.7405 0.711805L15.2691 0.489366V0.40039H11.3038V0.489366L11.9208 0.756293C12.5372 1.02322 12.67 1.1122 12.67 1.37912C12.67 1.824 12.2293 3.2921 12.1409 3.60351L10.8191 7.74088L8.70419 1.91298C8.57248 1.51259 8.52858 1.24566 8.52858 1.1122C8.52858 0.934244 8.61638 0.756293 9.14497 0.667317L9.67355 0.578341V0.40039H3.99023V0.533854L4.16643 0.578341C5.04741 0.756293 5.1797 0.934244 6.10516 3.24761L9.14497 10.766H9.93814L12.9779 3.24761C13.7711 1.42361 13.9473 1.1122 14.7399 0.711805" fill="#010202"/>
</g>
<defs>
<clipPath id="clip0_1439_1293">
<rect width="64.3902" height="24" fill="white" transform="translate(0.478027)"/>
</clipPath>
</defs>
</svg>
