<svg width="172" height="24" viewBox="0 0 172 24" fill="none" xmlns="http://www.w3.org/2000/svg">
<g clip-path="url(#clip0_332_11193)">
<path d="M0.0688477 21.8427V22.5675H21.2039V20.7529H3.75437L21.087 1.11819L21.0813 0.258301H0.884701V2.0729H17.4094L0.0688477 21.8427Z" fill="black"/>
<path d="M41.1435 0.258301L30.5972 23.7417H32.8576L36.4086 15.8186H47.095L50.6459 23.7417H52.9064L42.3601 0.258301H41.1435ZM46.2488 13.9221H37.2536L41.7355 3.86105L46.2488 13.9221Z" fill="black"/>
<path d="M65.7673 20.7529V0.258301H63.4741V22.5675H77.5641V20.7529H65.7673Z" fill="black"/>
<path d="M99.253 0.258301C92.3584 0.258301 86.9575 5.41569 86.9575 12C86.9575 18.5843 92.3584 23.7417 99.253 23.7417C106.185 23.7417 111.615 18.5843 111.615 12C111.616 5.41569 106.185 0.258301 99.253 0.258301ZM99.3207 21.7154C93.6969 21.7154 89.2909 17.4481 89.2909 12C89.2909 6.55184 93.6969 2.28458 99.3207 2.28458C104.907 2.28458 109.283 6.55184 109.283 12C109.283 17.4481 104.907 21.7154 99.3207 21.7154Z" fill="black"/>
<path d="M134.14 11.4848C136.818 10.4113 138.175 8.60545 138.175 6.11188C138.175 2.44672 135.31 0.258301 130.511 0.258301H124.531V22.5664H126.692V12.0624H129.522C132.172 12.0624 132.989 12.4417 135.617 16.4676L139.604 22.5675H142.143L136.853 14.6748C135.856 13.2177 135.052 12.105 134.14 11.4848ZM126.691 2.07181H130.147C133.844 2.07181 135.88 3.51804 135.88 6.14348C135.88 8.78963 133.868 10.2468 130.214 10.2468H126.692V2.07181H126.691Z" fill="black"/>
<path d="M160.952 0.258301H159.734L149.188 23.7417H151.449L155 15.8186H165.685L169.236 23.7417H171.498L160.952 0.258301ZM164.84 13.9221H155.846L160.327 3.86105L164.84 13.9221Z" fill="black"/>
</g>
<defs>
<clipPath id="clip0_332_11193">
<rect width="171.429" height="24" fill="white" transform="translate(0.0688477)"/>
</clipPath>
</defs>
</svg>
